<?xml version="1.0" encoding="UTF-8"?>
<svg version="1.1" xmlns="http://www.w3.org/2000/svg" width="259" height="252">
<path d="M0 0 C4.32657032 28.20527524 -2.39270149 61.60315335 -19 85 C-30.90450611 100.64541637 -46.54200816 113.98709363 -66 119 C-67.32 119 -68.64 119 -70 119 C-70.14550293 119.55582764 -70.29100586 120.11165527 -70.44091797 120.68432617 C-72.63326324 128.53323882 -75.83529454 135.87881531 -79.125 143.3125 C-79.70530313 144.6353024 -80.28496813 145.95838491 -80.86401367 147.28173828 C-82.02278066 149.92941324 -83.1837857 152.57608875 -84.34619141 155.22216797 C-86.70142442 160.59222211 -89.00910382 165.98254972 -91.3125 171.375 C-92.529375 174.22125 -93.74625 177.0675 -95 180 C-104.24 180 -113.48 180 -123 180 C-124.26334611 176.20996168 -123.55084958 175.43012191 -121.859375 171.8984375 C-121.37146484 170.86388428 -120.88355469 169.82933105 -120.38085938 168.76342773 C-119.84267578 167.64524658 -119.30449219 166.52706543 -118.75 165.375 C-117.62816214 162.99966323 -116.50841928 160.62333604 -115.390625 158.24609375 C-115.10469482 157.6401387 -114.81876465 157.03418365 -114.52416992 156.40986633 C-111.72956895 150.47020156 -109.10975152 144.45996664 -106.5 138.4375 C-95.83854039 114.06047674 -84.79878737 90.77299713 -68 70 C-67.33484375 69.14277344 -66.6696875 68.28554687 -65.984375 67.40234375 C-58.95904542 58.39221578 -51.18693295 49.96566449 -43 42 C-44.093125 42.639375 -45.18625 43.27875 -46.3125 43.9375 C-48.5838291 45.26601325 -50.47439892 46.15813297 -53 47 C-53.33 47.99 -53.66 48.98 -54 50 C-55.64233018 51.03948514 -57.31318382 52.03437639 -59 53 C-62.47927039 55.84009767 -65.72836537 58.92457219 -69 62 C-70.43279297 63.33417969 -70.43279297 63.33417969 -71.89453125 64.6953125 C-86.23637083 78.34914098 -97.88215983 95.30491078 -106.7109375 112.98828125 C-108 115 -108 115 -111 116 C-118.43165148 97.58242894 -116.09616611 75.73063097 -108.66967773 57.62841797 C-98.21001525 33.93881289 -78.3606197 17.44044059 -54.73828125 7.75390625 C-39.90378571 2.04928138 -15.77493588 -5.25831196 0 0 Z " fill="#57AD82" transform="translate(252,69)"/>
<path d="M0 0 C26.13164493 0.02960853 54.30796554 7.18451496 74.0625 25.25 C74.94164063 26.04921875 75.82078125 26.8484375 76.7265625 27.671875 C93.85339318 43.9966227 102.73934922 64.78533633 103.375 88.5 C103.2670839 97.27717631 101.842982 105.908554 99.0625 114.25 C98.4025 114.25 97.7425 114.25 97.0625 114.25 C96.80146484 113.73727539 96.54042969 113.22455078 96.27148438 112.69628906 C83.7358383 88.18481998 67.36738724 62.65903025 43.0625 48.25 C41.66451172 47.39148438 41.66451172 47.39148438 40.23828125 46.515625 C37.85964171 45.06919984 35.46968408 43.64821544 33.0625 42.25 C33.743125 42.745 34.42375 43.24 35.125 43.75 C38.06723338 46.2540284 40.42726303 48.86690065 42.921875 51.80078125 C44.52509012 53.6351168 46.14654519 55.40824225 47.828125 57.16796875 C61.32263629 71.32337296 71.66572258 87.33709949 80.5 104.75 C80.83016113 105.39630371 81.16032227 106.04260742 81.50048828 106.70849609 C83.53307376 110.81514839 84.92395942 114.81026388 86.0625 119.25 C66.43815183 122.78881688 46.02328043 114.98554849 29.72802734 104.41552734 C7.38334025 88.77883192 -4.68938543 63.25052759 -9.875 37.125 C-11.90903447 25.51657772 -11.75103772 12.97480419 -10.9375 1.25 C-8.62765241 -1.05984759 -3.09028323 0.00871802 0 0 Z " fill="#57AD81" transform="translate(13.9375,94.75)"/>
<path d="M0 0 C0.78084961 -0.01998047 1.56169922 -0.03996094 2.36621094 -0.06054688 C4.5 0 4.5 0 8 1 C9.10350037 2.56420898 9.10350037 2.56420898 10.01733398 4.55859375 C10.3526413 5.2841748 10.68794861 6.00975586 11.03341675 6.75732422 C12.50296032 10.1669734 13.8959596 13.59480435 15.22265625 17.0625 C15.66915024 18.21418922 15.66915024 18.21418922 16.12466431 19.3891449 C16.76910096 21.05224427 17.41184903 22.71599876 18.05307007 24.38034058 C19.81619393 28.95597668 21.59218224 33.52661898 23.3671875 38.09765625 C23.92798256 39.54302513 23.92798256 39.54302513 24.50010681 41.01759338 C28.43978329 51.15838716 32.45529614 61.26878956 36.47235107 71.37911987 C43.1005986 88.06160224 49.66212399 104.7643278 55.99291992 121.56225586 C57.97785861 126.81300208 59.96273189 132.01566481 62.36328125 137.09375 C63.82448887 140.29585972 64.42598883 142.51355864 63.75 146.0625 C63.62109375 146.81660156 63.4921875 147.57070312 63.359375 148.34765625 C63.24078125 148.89292969 63.1221875 149.43820313 63 150 C62.34 150 61.68 150 61 150 C60.75507812 149.319375 60.51015625 148.63875 60.2578125 147.9375 C51.66637716 125.6590194 36.32945218 107.46325036 14.9375 96.625 C14.26041992 96.28130371 13.58333984 95.93760742 12.88574219 95.58349609 C8.76660054 93.59155 5.1657435 92.66611738 0.625 91.9375 C-2.54465687 90.92269511 -4.45978062 89.87426801 -6.23268127 87.00508118 C-7.50326483 84.32851046 -8.63779969 81.62438097 -9.7421875 78.875 C-10.16808167 77.85478256 -10.59397583 76.83456512 -11.03277588 75.78343201 C-12.37980047 72.53170546 -13.69471164 69.26868618 -15 66 C-15.41473572 64.96505402 -15.82947144 63.93010803 -16.2567749 62.86380005 C-19.14653048 55.61906577 -21.95526228 48.34430044 -24.75 41.0625 C-25.5685829 38.94189221 -26.38759256 36.82144912 -27.20703125 34.70117188 C-31.53420682 23.49083354 -35.81037094 12.26247712 -40 1 C-35.58346769 0.82964545 -31.16675741 0.66440646 -26.75 0.5 C-24.89761719 0.42845703 -24.89761719 0.42845703 -23.0078125 0.35546875 C-15.33339772 0.07272715 -7.67914747 -0.05302058 0 0 Z " fill="#58AC82" transform="translate(62,2)"/>
<path d="M0 0 C15.51 0 31.02 0 47 0 C46.28771006 4.27373966 45.72353672 7.12188312 44.15820312 10.96386719 C43.59256653 12.36496735 43.59256653 12.36496735 43.01550293 13.79437256 C42.40454773 15.28061127 42.40454773 15.28061127 41.78125 16.796875 C41.36331177 17.82685608 40.94537354 18.85683716 40.51477051 19.91802979 C39.18224663 23.19772018 37.84114825 26.47382825 36.5 29.75 C35.59711137 31.96983054 34.69476151 34.18988029 33.79296875 36.41015625 C32.145754 40.45930931 30.49743737 44.50799482 28.84179688 48.55371094 C28.50950073 49.36612244 28.17720459 50.17853394 27.83483887 51.01556396 C27.26783182 52.36335604 26.6539175 53.69216501 26 55 C23.86132812 55.51489258 23.86132812 55.51489258 21.03125 55.89453125 C19.99291016 56.04277344 18.95457031 56.19101562 17.88476562 56.34375 C16.76779297 56.4984375 15.65082031 56.653125 14.5 56.8125 C0.57806122 58.88850908 -12.2332064 61.95257145 -25 68 C-25.66 68 -26.32 68 -27 68 C-24.64204119 60.67953966 -21.94395788 53.5295303 -19.125 46.375 C-18.42056763 44.58304199 -18.42056763 44.58304199 -17.7019043 42.75488281 C-12.03595052 28.40483075 -6.00708063 14.21029827 0 0 Z " fill="#59AC83" transform="translate(209,2)"/>
<path d="M0 0 C0.34933594 0.91523438 0.69867188 1.83046875 1.05859375 2.7734375 C1.51363281 3.96195313 1.96867187 5.15046875 2.4375 6.375 C3.11619141 8.15003906 3.11619141 8.15003906 3.80859375 9.9609375 C4.89271912 12.86036193 4.89271912 12.86036193 6 15 C5.91348369 16.54613014 5.75997364 18.08909387 5.5625 19.625 C5.46066406 20.44226563 5.35882813 21.25953125 5.25390625 22.1015625 C5.17011719 22.72804687 5.08632812 23.35453125 5 24 C4.34 24 3.68 24 3 24 C2.69707031 23.2265625 2.39414063 22.453125 2.08203125 21.65625 C-0.22804645 15.91304144 -2.56034318 10.66000126 -6.1796875 5.62109375 C-6.45039062 5.08613281 -6.72109375 4.55117187 -7 4 C-6.67 3.01 -6.34 2.02 -6 1 C-3 0 -3 0 0 0 Z " fill="#51A178" transform="translate(120,128)"/>
<path d="M0 0 C0.33 0 0.66 0 1 0 C1.4614247 11.09128254 0.53099542 21.40701373 -3 32 C-3.66 32 -4.32 32 -5 32 C-5.67408308 30.73308493 -6.33900497 29.46129251 -7 28.1875 C-7.37125 27.47980469 -7.7425 26.77210938 -8.125 26.04296875 C-9 24 -9 24 -9 21 C-6.5 18.5 -6.5 18.5 -4 16 C-3.01 16.33 -2.02 16.66 -1 17 C-0.67 11.39 -0.34 5.78 0 0 Z " fill="#5CAD85" transform="translate(116,177)"/>
<path d="M0 0 C14.52 0 29.04 0 44 0 C44 0.33 44 0.66 44 1 C29.81 1 15.62 1 1 1 C1.33 1.99 1.66 2.98 2 4 C0.93650501 6.4892158 -0.16983073 8.80733755 -1.4375 11.1875 C-1.77587891 11.84169922 -2.11425781 12.49589844 -2.46289062 13.16992188 C-3.29969098 14.78459299 -4.14869746 16.39292763 -5 18 C-5.66 17.67 -6.32 17.34 -7 17 C-4.69 11.39 -2.38 5.78 0 0 Z " fill="#619E82" transform="translate(209,2)"/>
<path d="M0 0 C0 4.08416571 -0.15289626 8.30579253 -2 12 C-3.65 11.67 -5.3 11.34 -7 11 C-7.45375 11.969375 -7.9075 12.93875 -8.375 13.9375 C-10 17 -10 17 -12 18 C-12 18.66 -12 19.32 -12 20 C-12.99 19.67 -13.98 19.34 -15 19 C-13.40212025 15.35752143 -11.15207958 12.55600321 -8.625 9.5 C-7.85414063 8.5615625 -7.08328125 7.623125 -6.2890625 6.65625 C-4.27933934 4.32414804 -2.21072222 2.14005986 0 0 Z " fill="#53A87D" transform="translate(201,119)"/>
<path d="M0 0 C2.57737166 1.03094867 3.76284247 1.5108626 5 4.0625 C5.33 4.701875 5.66 5.34125 6 6 C8.0252347 6.64706729 8.0252347 6.64706729 10 7 C8.04350603 7.83764268 6.08474444 8.66999059 4.125 9.5 C3.03445312 9.9640625 1.94390625 10.428125 0.8203125 10.90625 C-2 12 -2 12 -4 12 C-2.66666667 8 -1.33333333 4 0 0 Z " fill="#55A07B" transform="translate(186,58)"/>
<path d="M0 0 C3.49928164 2.33285443 3.6329098 3.20795069 4.6875 7.125 C5.06455078 8.49011719 5.06455078 8.49011719 5.44921875 9.8828125 C5.63097656 10.58148438 5.81273438 11.28015625 6 12 C2.7 12.33 -0.6 12.66 -4 13 C-3.34 10.69 -2.68 8.38 -2 6 C-1.34 6 -0.68 6 0 6 C0 4.02 0 2.04 0 0 Z " fill="#54B491" transform="translate(94,202)"/>
<path d="M0 0 C0.33 0 0.66 0 1 0 C1.4614247 11.09128254 0.53099542 21.40701373 -3 32 C-3.66 32 -4.32 32 -5 32 C-5.6875 30.1875 -5.6875 30.1875 -6 28 C-5.02246356 26.97803008 -4.0194119 25.98020375 -3 25 C-2.19191851 21.73746213 -1.78819995 18.47806617 -1.46484375 15.13671875 C-1.33432617 13.80737305 -1.33432617 13.80737305 -1.20117188 12.45117188 C-1.11416016 11.53916016 -1.02714844 10.62714844 -0.9375 9.6875 C-0.84662109 8.75615234 -0.75574219 7.82480469 -0.66210938 6.86523438 C-0.43915626 4.5770314 -0.21852514 2.28862938 0 0 Z " fill="#659C81" transform="translate(116,177)"/>
<path d="M0 0 C9.07519588 0.37734702 17.33318919 2.48533829 26 5 C24.02 5.99 24.02 5.99 22 7 C21.67 6.34 21.34 5.68 21 5 C18.69 5 16.38 5 14 5 C14 4.34 14 3.68 14 3 C12.72125 3.185625 11.4425 3.37125 10.125 3.5625 C6.25 4.125 6.25 4.125 4 3 C4 2.34 4 1.68 4 1 C2.68 0.67 1.36 0.34 0 0 Z " fill="#5D9F7E" transform="translate(28,96)"/>
<path d="M0 0 C0.99 0.99 1.98 1.98 3 3 C2.01 4.98 1.02 6.96 0 9 C-1.32 9 -2.64 9 -4 9 C-4.33 7.35 -4.66 5.7 -5 4 C-4.34 4 -3.68 4 -3 4 C-2.67 3.01 -2.34 2.02 -2 1 C-1.34 0.67 -0.68 0.34 0 0 Z " fill="#4BA974" transform="translate(145,173)"/>
<path d="M0 0 C0.99 0.33 1.98 0.66 3 1 C3 1.66 3 2.32 3 3 C3.66 3 4.32 3 5 3 C6.01351664 4.65848177 7.01120795 6.32665961 8 8 C9.89584109 10.31377147 9.89584109 10.31377147 12 12 C12.99 12 13.98 12 15 12 C15.33 13.65 15.66 15.3 16 17 C9.43097693 14.14071541 4.06963599 7.76531766 0 2 C0 1.34 0 0.68 0 0 Z " fill="#5E9B80" transform="translate(24,178)"/>
<path d="M0 0 C1.32 0.33 2.64 0.66 4 1 C2.50104329 4.81552617 0.2013144 6.53745046 -3 9 C-3.33 9.66 -3.66 10.32 -4 11 C-4.66 11 -5.32 11 -6 11 C-6.66 12.32 -7.32 13.64 -8 15 C-7.4520917 10.7170548 -5.97567196 8.14864359 -3.4375 4.6875 C-2.79683594 3.80449219 -2.15617188 2.92148438 -1.49609375 2.01171875 C-0.75552734 1.01591797 -0.75552734 1.01591797 0 0 Z " fill="#5AA37E" transform="translate(156,106)"/>
<path d="M0 0 C3.39417765 3.12621626 5.6062718 5.56541027 7 10 C5.68 10.33 4.36 10.66 3 11 C2.34 10.01 1.68 9.02 1 8 C0.01904252 6.98131338 -0.97702078 5.97648017 -2 5 C-1.34 3.35 -0.68 1.7 0 0 Z " fill="#59A379" transform="translate(99,133)"/>
<path d="M0 0 C2.50298434 2.93828597 3.46930939 5.17902761 4 9 C1.69 9.66 -0.62 10.32 -3 11 C-3.99 9.02 -4.98 7.04 -6 5 C-1.125 5.875 -1.125 5.875 0 7 C0 4.69 0 2.38 0 0 Z " fill="#59A07B" transform="translate(115,119)"/>
<path d="M0 0 C1.45922693 0.11409593 2.91740598 0.24165544 4.375 0.375 C5.59316406 0.47941406 5.59316406 0.47941406 6.8359375 0.5859375 C9 1 9 1 11 3 C13.06874034 3.6425235 13.06874034 3.6425235 15 4 C15.33 5.65 15.66 7.3 16 9 C12.20950293 7.57250019 8.72877544 5.83763458 5.1875 3.875 C4.21167969 3.33617188 3.23585938 2.79734375 2.23046875 2.2421875 C1.49441406 1.83226563 0.75835937 1.42234375 0 1 C0 0.67 0 0.34 0 0 Z " fill="#60A382" transform="translate(72,95)"/>
<path d="M0 0 C6.625 -0.125 6.625 -0.125 10 1 C10.33 3.31 10.66 5.62 11 8 C9.68 8 8.36 8 7 8 C6.773125 7.195625 6.54625 6.39125 6.3125 5.5625 C5.879375 4.716875 5.44625 3.87125 5 3 C2.45224694 2.10613836 2.45224694 2.10613836 0 2 C0 1.34 0 0.68 0 0 Z " fill="#5AA07E" transform="translate(242,68)"/>
<path d="M0 0 C1.09570312 0.00902344 2.19140625 0.01804688 3.3203125 0.02734375 C4.16335937 0.03894531 5.00640625 0.05054687 5.875 0.0625 C5.875 1.0525 5.875 2.0425 5.875 3.0625 C1.255 3.0625 -3.365 3.0625 -8.125 3.0625 C-8.125 2.4025 -8.125 1.7425 -8.125 1.0625 C-5.36047967 -0.31976016 -3.0788637 -0.03275387 0 0 Z " fill="#4DAF95" transform="translate(56.125,1.9375)"/>
<path d="M0 0 C0.66 0.33 1.32 0.66 2 1 C-0.64 5.29 -3.28 9.58 -6 14 C-6.66 13.67 -7.32 13.34 -8 13 C-8.3125 10.6875 -8.3125 10.6875 -8 8 C-5.5625 6.375 -5.5625 6.375 -3 5 C-2.67 4.01 -2.34 3.02 -2 2 C-1.34 2 -0.68 2 0 2 C0 1.34 0 0.68 0 0 Z " fill="#5DA788" transform="translate(154,162)"/>
<path d="M0 0 C0.33 0.66 0.66 1.32 1 2 C1.66 2.33 2.32 2.66 3 3 C3 3.99 3 4.98 3 6 C3.82911967 9.25725586 4.61510971 12.27073419 6.1875 15.25 C7 17 7 17 6 20 C4.79816525 17.42249905 3.61343114 14.83928838 2.4375 12.25 C2.09525391 11.52039063 1.75300781 10.79078125 1.40039062 10.0390625 C1.08134766 9.33007812 0.76230469 8.62109375 0.43359375 7.890625 C-0.01415405 6.91657715 -0.01415405 6.91657715 -0.47094727 5.92285156 C-1.10866223 3.60506519 -0.75542816 2.25095697 0 0 Z " fill="#589B7C" transform="translate(11,149)"/>
<path d="M0 0 C0.99 0.99 1.98 1.98 3 3 C2.484375 3.5775 1.96875 4.155 1.4375 4.75 C-0.23053312 6.8563365 -0.23053312 6.8563365 0.1875 9.125 C0.94660836 11.19171429 0.94660836 11.19171429 3 13 C2.01 13.33 1.02 13.66 0 14 C-0.52973311 12.37787941 -1.04853107 10.75218416 -1.5625 9.125 C-1.85253906 8.22007812 -2.14257812 7.31515625 -2.44140625 6.3828125 C-3 4 -3 4 -2 2 C-1.34 2 -0.68 2 0 2 C0 1.34 0 0.68 0 0 Z " fill="#55A479" transform="translate(141,171)"/>
<path d="M0 0 C0.99 1.32 1.98 2.64 3 4 C2.67 4.66 2.34 5.32 2 6 C3.32 6.66 4.64 7.32 6 8 C5.01 8.99 4.02 9.98 3 11 C2.01 10.01 1.02 9.02 0 8 C-0.99 8.495 -0.99 8.495 -2 9 C-1.34 6.03 -0.68 3.06 0 0 Z " fill="#4EAF79" transform="translate(51,141)"/>
<path d="M0 0 C0.88294913 2.46443397 1.11277626 3.66820037 0.2578125 6.18359375 C-0.11601562 6.92738281 -0.48984375 7.67117187 -0.875 8.4375 C-2.40437956 11.6333759 -3.54209492 14.45123565 -4 18 C-4.99 18 -5.98 18 -7 18 C-5.64474464 13.78224268 -4.09799886 9.70578678 -2.375 5.625 C-1.92898437 4.56539062 -1.48296875 3.50578125 -1.0234375 2.4140625 C-0.68570313 1.61742187 -0.34796875 0.82078125 0 0 Z " fill="#60A485" transform="translate(136,228)"/>
<path d="M0 0 C0.66 1.32 1.32 2.64 2 4 C-0.64 6.31 -3.28 8.62 -6 11 C-6 7.39426104 -5.18292538 6.58663434 -3 3.8125 C-2.443125 3.09707031 -1.88625 2.38164062 -1.3125 1.64453125 C-0.879375 1.10183594 -0.44625 0.55914062 0 0 Z " fill="#5DA180" transform="translate(181,143)"/>
<path d="M0 0 C0.66 0.33 1.32 0.66 2 1 C2.33 1.99 2.66 2.98 3 4 C3.66 4.33 4.32 4.66 5 5 C4.67 3.68 4.34 2.36 4 1 C6.7839183 2.39195915 6.97898997 4.15575779 8 7 C7.34 7.66 6.68 8.32 6 9 C3.69 7.35 1.38 5.7 -1 4 C-0.67 2.68 -0.34 1.36 0 0 Z M6 1 C8 2 8 2 8 2 Z " fill="#4DAA74" transform="translate(55,137)"/>
<path d="M0 0 C0.90305236 2.70915709 1.63723355 5.17042171 2 8 C1.34 8.66 0.68 9.32 0 10 C-0.66 10 -1.32 10 -2 10 C-2.99 10.495 -2.99 10.495 -4 11 C-3.48964169 6.6109185 -2.47785723 3.66291938 0 0 Z " fill="#5FA986" transform="translate(166,165)"/>
<path d="M0 0 C0.99 0 1.98 0 3 0 C2.01 2.97 1.02 5.94 0 9 C-2.31 9 -4.62 9 -7 9 C-6.67 8.34 -6.34 7.68 -6 7 C-4.35 7 -2.7 7 -1 7 C-0.67 4.69 -0.34 2.38 0 0 Z " fill="#649D81" transform="translate(235,48)"/>
<path d="M0 0 C1.32 0.33 2.64 0.66 4 1 C4 1.66 4 2.32 4 3 C4.66 3 5.32 3 6 3 C7.625 4.375 7.625 4.375 9 6 C9 6.66 9 7.32 9 8 C9.66 8 10.32 8 11 8 C10.67 8.99 10.34 9.98 10 11 C8.33035479 9.35718838 6.6643536 7.71067239 5 6.0625 C4.071875 5.14597656 3.14375 4.22945312 2.1875 3.28515625 C0 1 0 1 0 0 Z " fill="#5B9C7A" transform="translate(76,158)"/>
<path d="M0 0 C0.66 0.66 1.32 1.32 2 2 C2.99 2.66 3.98 3.32 5 4 C4.67 4.99 4.34 5.98 4 7 C2.125 6.75 2.125 6.75 0 6 C-1.25 3.9375 -1.25 3.9375 -2 2 C-1.34 1.34 -0.68 0.68 0 0 Z " fill="#4BA978" transform="translate(194,112)"/>
<path d="M0 0 C0 3.37027852 -0.49824008 4.06702696 -2.4375 6.6875 C-2.88996094 7.31011719 -3.34242188 7.93273437 -3.80859375 8.57421875 C-4.20175781 9.04472656 -4.59492188 9.51523438 -5 10 C-5.33 10 -5.66 10 -6 10 C-6.375 7.8125 -6.375 7.8125 -6 5 C-4.16038352 3.00977164 -2.20813852 1.61010101 0 0 Z " fill="#5F9E81" transform="translate(162,152)"/>
<path d="M0 0 C-0.33 1.98 -0.66 3.96 -1 6 C-1.99 5.34 -2.98 4.68 -4 4 C-4 3.34 -4 2.68 -4 2 C-4.99 2.33 -5.98 2.66 -7 3 C-6.67 2.01 -6.34 1.02 -6 0 C-3 -1 -3 -1 0 0 Z " fill="#46AB77" transform="translate(120,129)"/>
<path d="M0 0 C0.66 0 1.32 0 2 0 C2.33 0.99 2.66 1.98 3 3 C1.87926138 3.83905565 0.75325453 4.67107831 -0.375 5.5 C-1.00148437 5.9640625 -1.62796875 6.428125 -2.2734375 6.90625 C-4 8 -4 8 -6 8 C-6 7.01 -6 6.02 -6 5 C-4.03852126 3.61061923 -2.03833424 2.2739589 0 1 C0 0.67 0 0.34 0 0 Z " fill="#60A281" transform="translate(205,108)"/>
<path d="M0 0 C2 3 2 3 2 6 C1 7 0 8 -1 9 C-1.71447643 11.10332891 -1.71447643 11.10332891 -2 13 C-2.66 13 -3.32 13 -4 13 C-3.52140759 11.39566191 -3.04210442 9.79153584 -2.5625 8.1875 C-2.29566406 7.29417969 -2.02882812 6.40085937 -1.75390625 5.48046875 C-1.19612127 3.64526945 -0.60655425 1.81966274 0 0 Z " fill="#5C9F81" transform="translate(195,35)"/>
<path d="M0 0 C1.32 1.32 2.64 2.64 4 4 C0.25 7 0.25 7 -2 7 C-1.34 4.69 -0.68 2.38 0 0 Z " fill="#4E9676" transform="translate(184,63)"/>
<path d="M0 0 C0.99 0.33 1.98 0.66 3 1 C3 2.65 3 4.3 3 6 C3.66 6.33 4.32 6.66 5 7 C5 8.98 5 10.96 5 13 C2.94876752 10.94876752 2.35852882 9.72994937 1.375 7.0625 C0.98441406 6.02802734 0.98441406 6.02802734 0.5859375 4.97265625 C0 3 0 3 0 0 Z " fill="#609D7F" transform="translate(31,24)"/>
<path d="M0 0 C0.66 0.33 1.32 0.66 2 1 C0.02 3.31 -1.96 5.62 -4 8 C-5.04449911 4.86650268 -4.93423645 4.01031744 -4 1 C-4 1.66 -4 2.32 -4 3 C-3.01 3 -2.02 3 -1 3 C-0.67 2.01 -0.34 1.02 0 0 Z " fill="#5E9F87" transform="translate(225,160)"/>
<path d="M0 0 C2.95183101 2.95183101 3.08663988 5.95511947 4 10 C1.525 9.01 1.525 9.01 -1 8 C-0.67 5.36 -0.34 2.72 0 0 Z " fill="#5DA57E" transform="translate(109,103)"/>
<path d="M0 0 C0.99 0.495 0.99 0.495 2 1 C2 1.66 2 2.32 2 3 C2.99 3.33 3.98 3.66 5 4 C5 5.65 5 7.3 5 9 C4.34 9 3.68 9 3 9 C2.01 6.03 1.02 3.06 0 0 Z " fill="#62A284" transform="translate(48,68)"/>
<path d="M0 0 C2.475 0.99 2.475 0.99 5 2 C4.6875 3.9375 4.6875 3.9375 4 6 C3.01 6.33 2.02 6.66 1 7 C1 6.01 1 5.02 1 4 C0.6937566 2.66018514 0.36548445 1.32488113 0 0 Z " fill="#50B088" transform="translate(88,194)"/>
<path d="M0 0 C-1.65 1.98 -3.3 3.96 -5 6 C-6.0625 4.125 -6.0625 4.125 -7 2 C-6 0 -6 0 -4.0625 -0.6875 C-2 -1 -2 -1 0 0 Z " fill="#5BA081" transform="translate(233,154)"/>
<path d="M0 0 C1.32 0 2.64 0 4 0 C3.67 1.65 3.34 3.3 3 5 C2.01 5 1.02 5 0 5 C-0.5625 3.0625 -0.5625 3.0625 -1 1 C-0.67 0.67 -0.34 0.34 0 0 Z " fill="#4CAF76" transform="translate(171,157)"/>
<path d="M0 0 C0 3.93169105 -1.39419615 5.16427228 -4 8 C-4.66 8 -5.32 8 -6 8 C-4.55746343 4.63408134 -2.66735273 2.48952921 0 0 Z " fill="#509976" transform="translate(201,119)"/>
<path d="M0 0 C0.33 0.66 0.66 1.32 1 2 C1.66 2.33 2.32 2.66 3 3 C2.01 3.495 2.01 3.495 1 4 C0.27840576 5.64363134 -0.39351421 7.31050386 -1 9 C-1.66 9 -2.32 9 -3 9 C-2.01 6.03 -1.02 3.06 0 0 Z " fill="#5EA380" transform="translate(145,208)"/>
<path d="M0 0 C0.93423645 3.01031744 1.04449911 3.86650268 0 7 C-0.66 7 -1.32 7 -2 7 C-2.6875 5.1875 -2.6875 5.1875 -3 3 C-1.5625 1.25 -1.5625 1.25 0 0 Z " fill="#589D7E" transform="translate(113,202)"/>
<path d="M0 0 C2.31 0.33 4.62 0.66 7 1 C7.33 2.32 7.66 3.64 8 5 C5.36 3.68 2.72 2.36 0 1 C0 0.67 0 0.34 0 0 Z " fill="#63A487" transform="translate(49,201)"/>
<path d="M0 0 C0.66 0 1.32 0 2 0 C4.29648649 2.5614657 5 3.47967572 5 7 C5.66 7.33 6.32 7.66 7 8 C6.01 8 5.02 8 4 8 C2.68 5.36 1.36 2.72 0 0 Z " fill="#5D997D" transform="translate(18,169)"/>
<path d="M0 0 C2.475 0.495 2.475 0.495 5 1 C5.33 1.99 5.66 2.98 6 4 C4.68 4.33 3.36 4.66 2 5 C1.34 3.35 0.68 1.7 0 0 Z " fill="#4DA87B" transform="translate(100,139)"/>
<path d="M0 0 C2.35953094 2.35953094 2.49141413 3.77895617 3 7 C1.35 6.67 -0.3 6.34 -2 6 C-1.34 4.02 -0.68 2.04 0 0 Z " fill="#5DA17F" transform="translate(93,62)"/>
<path d="" fill="#FFFFFF" transform="translate(0,0)"/>
<path d="" fill="#FFFFFF" transform="translate(0,0)"/>
<path d="" fill="#FFFFFF" transform="translate(0,0)"/>
<path d="" fill="#FFFFFF" transform="translate(0,0)"/>
<path d="" fill="#FFFFFF" transform="translate(0,0)"/>
<path d="" fill="#FFFFFF" transform="translate(0,0)"/>
<path d="" fill="#FFFFFF" transform="translate(0,0)"/>
<path d="" fill="#00FFFF" transform="translate(0,0)"/>
<path d="" fill="#FFFFFF" transform="translate(0,0)"/>
<path d="" fill="#FFFFFF" transform="translate(0,0)"/>
<path d="" fill="#FFFFFF" transform="translate(0,0)"/>
<path d="" fill="#FFFFFF" transform="translate(0,0)"/>
<path d="" fill="#FFFFFF" transform="translate(0,0)"/>
<path d="" fill="#FFFFFF" transform="translate(0,0)"/>
<path d="" fill="#FFFFFF" transform="translate(0,0)"/>
<path d="" fill="#FFFFFF" transform="translate(0,0)"/>
<path d="" fill="#FFFFFF" transform="translate(0,0)"/>
<path d="" fill="#FFFFFF" transform="translate(0,0)"/>
<path d="" fill="#FFFFFF" transform="translate(0,0)"/>
<path d="" fill="#FFFFFF" transform="translate(0,0)"/>
<path d="" fill="#FFFFFF" transform="translate(0,0)"/>
<path d="" fill="#FFFFFF" transform="translate(0,0)"/>
<path d="" fill="#FFFFFF" transform="translate(0,0)"/>
<path d="" fill="#FFFFFF" transform="translate(0,0)"/>
<path d="" fill="#FFFFFF" transform="translate(0,0)"/>
<path d="" fill="#FFFFFF" transform="translate(0,0)"/>
<path d="" fill="#FFFFFF" transform="translate(0,0)"/>
<path d="" fill="#FFFFFF" transform="translate(0,0)"/>
<path d="" fill="#FFFFFF" transform="translate(0,0)"/>
<path d="" fill="#FFFFFF" transform="translate(0,0)"/>
<path d="" fill="#FFFFFF" transform="translate(0,0)"/>
<path d="" fill="#FFFFFF" transform="translate(0,0)"/>
<path d="" fill="#FFFFFF" transform="translate(0,0)"/>
<path d="" fill="#FFFFFF" transform="translate(0,0)"/>
<path d="" fill="#FFFFFF" transform="translate(0,0)"/>
<path d="" fill="#FFFFFF" transform="translate(0,0)"/>
<path d="" fill="#FFFFFF" transform="translate(0,0)"/>
<path d="" fill="#FFFFFF" transform="translate(0,0)"/>
<path d="" fill="#FFFFFF" transform="translate(0,0)"/>
<path d="" fill="#FFFFFF" transform="translate(0,0)"/>
<path d="" fill="#FFFFFF" transform="translate(0,0)"/>
<path d="" fill="#FFFFFF" transform="translate(0,0)"/>
<path d="" fill="#FFFFFF" transform="translate(0,0)"/>
<path d="" fill="#FFFFFF" transform="translate(0,0)"/>
<path d="" fill="#FFFFFF" transform="translate(0,0)"/>
<path d="" fill="#FFFFFF" transform="translate(0,0)"/>
<path d="" fill="#FFFFFF" transform="translate(0,0)"/>
<path d="" fill="#FFFFFF" transform="translate(0,0)"/>
<path d="" fill="#FFFFFF" transform="translate(0,0)"/>
</svg>
