<?xml version="1.0" encoding="UTF-8"?>
<svg version="1.1" xmlns="http://www.w3.org/2000/svg" width="960" height="299">
<path d="M0 0 C3.12255522 1.08012917 5.89010224 2.60721724 8.75 4.25 C9.56726563 4.69964111 10.38453125 5.14928223 11.2265625 5.61254883 C13.8303588 7.05368875 16.41638581 8.52302417 19 10 C19.82048828 10.46519043 20.64097656 10.93038086 21.48632812 11.40966797 C25.76327445 13.83513337 30.02879823 16.27974719 34.2890625 18.734375 C40.61483307 22.36752407 46.9932308 25.9039125 53.375 29.4375 C62.7542579 34.633242 72.10850159 39.86974213 81.43701172 45.15600586 C88.44567777 49.12620832 95.46980612 53.06805991 102.5 57 C104.58206771 58.1666016 106.66409905 59.3332681 108.74609375 60.5 C112.96290427 62.86241805 117.18509044 65.21488291 121.41015625 67.5625 C123.46104811 68.70813535 125.51183351 69.85396129 127.5625 71 C128.96242187 71.7734375 128.96242187 71.7734375 130.390625 72.5625 C145.78880065 81.19447 145.78880065 81.19447 148 87 C147.80345959 92.40486117 146.62231859 95.06326958 143 99 C140.46411133 100.72241211 140.46411133 100.72241211 137.58203125 102.27734375 C136.50550293 102.86588135 135.42897461 103.45441895 134.31982422 104.06079102 C133.16240723 104.68010498 132.00499023 105.29941895 130.8125 105.9375 C129.59586761 106.59898617 128.37989394 107.26168522 127.16455078 107.92553711 C124.66509476 109.29001344 122.16323353 110.64991607 119.65966797 112.00683594 C114.20147652 114.97171306 108.78914012 118.0181521 103.375 121.0625 C101.31263367 122.21898841 99.25013351 123.37523819 97.1875 124.53125 C96.16914063 125.10230469 95.15078125 125.67335938 94.1015625 126.26171875 C90.96447836 128.01990823 87.82618127 129.77591344 84.6875 131.53125 C74.61295543 137.16636267 64.54593306 142.81401398 54.5 148.5 C45.35455478 153.6760707 36.20300832 158.84132714 27.01953125 163.94970703 C22.22674551 166.6169768 17.45491776 169.30538799 12.73828125 172.10546875 C11.93173096 172.57637939 11.12518066 173.04729004 10.29418945 173.5324707 C8.82630287 174.3914585 7.36679162 175.26502665 5.91870117 176.15698242 C1.07993578 178.96006759 -3.41090769 180.06380159 -9 179 C-11.75569447 176.81840855 -13.43588747 175.12822506 -15 172 C-15.10083402 169.84488251 -15.13513108 167.68656709 -15.14044189 165.52909851 C-15.14341302 164.85713135 -15.14638414 164.18516419 -15.1494453 163.49283439 C-15.15814976 161.23048065 -15.15964201 158.96817972 -15.16113281 156.70581055 C-15.16575977 155.08803188 -15.17078427 153.47025432 -15.17617798 151.85247803 C-15.18931626 147.44950902 -15.19574978 143.04655526 -15.20018864 138.64356971 C-15.20311723 135.89401337 -15.20722164 133.14446123 -15.21169281 130.394907 C-15.22537187 121.79586483 -15.23503637 113.19683222 -15.2388947 104.59777993 C-15.24337578 94.664731 -15.26092427 84.73181966 -15.2898953 74.79881257 C-15.31149956 67.12571863 -15.32159832 59.45266344 -15.32293582 51.77953941 C-15.32398481 47.19458821 -15.32991236 42.60976626 -15.34775543 38.02484703 C-15.36421431 33.71155911 -15.36640229 29.39849792 -15.35761642 25.08518982 C-15.35684486 23.50213833 -15.3612045 21.91907476 -15.37107468 20.33605385 C-15.38376211 18.17438251 -15.37793555 16.01351802 -15.36749268 13.85185242 C-15.36895924 12.64229228 -15.3704258 11.43273214 -15.3719368 10.18651867 C-14.96009927 6.65815588 -14.13288113 4.81486154 -12 2 C-7.91465097 -0.72356602 -4.79795416 -0.64920276 0 0 Z " fill="#00D2FE" transform="translate(91,60)"/>
<path d="M0 0 C1.2793466 -0.00327219 2.55869319 -0.00654439 3.87680787 -0.00991574 C5.29721535 -0.0085057 6.71762275 -0.00700369 8.13803005 -0.00541991 C9.65263866 -0.00737301 11.16724676 -0.00976191 12.68185407 -0.01254788 C16.8640032 -0.01895631 21.04613313 -0.01910883 25.22828624 -0.01827047 C29.77068926 -0.0184398 34.31308538 -0.02434407 38.85548496 -0.02951133 C47.87386461 -0.03884563 56.89223935 -0.04276077 65.91062322 -0.0450303 C76.70920019 -0.0479902 87.50777062 -0.05668635 98.30634416 -0.06544458 C124.40873507 -0.08629837 150.51112713 -0.09676012 176.61352443 -0.10557419 C188.95874115 -0.10977924 201.30395737 -0.11500141 213.64917368 -0.12025872 C255.89775192 -0.13814943 298.1463303 -0.15314616 340.39491177 -0.16057891 C343.04776557 -0.16105367 345.70061938 -0.16152955 348.35347319 -0.16200657 C350.32686235 -0.16236113 350.32686235 -0.16236113 352.34011796 -0.16272286 C358.33786583 -0.16380372 364.3356137 -0.164893 370.33336157 -0.16599704 C371.66918705 -0.16624227 373.00501253 -0.16648613 374.34083802 -0.16672861 C417.2388464 -0.17451764 460.13682743 -0.19689936 503.03482386 -0.22940504 C549.04137258 -0.26425445 595.04790401 -0.28488055 641.05446625 -0.28822315 C646.03042571 -0.2886407 651.00638517 -0.28912026 655.98234463 -0.28964633 C657.2075901 -0.28976952 658.43283558 -0.28989271 659.6952097 -0.29001964 C679.42437086 -0.292353 699.15349996 -0.30802051 718.88264968 -0.32848817 C738.70882622 -0.34873039 758.53496418 -0.35423106 778.36114913 -0.34471754 C790.1428376 -0.3394964 801.92439779 -0.34540908 813.70606783 -0.36725221 C821.57582267 -0.38074126 829.44548902 -0.37970005 837.31524471 -0.36685025 C841.79941194 -0.35994107 846.28333358 -0.35932691 850.76747906 -0.37641034 C854.85154973 -0.39184273 858.93517799 -0.38866316 863.01923575 -0.37100006 C864.48301352 -0.36786514 865.94682538 -0.3713492 867.4105641 -0.38249181 C879.60347579 -0.46922037 891.23020534 0.93636001 900.77290249 9.14833242 C908.92587347 17.49895118 912.17790294 27.01746586 912.09417629 38.52708608 C912.1022546 39.88067659 912.1022546 39.88067659 912.1104961 41.26161236 C912.1247159 44.26224292 912.11768674 47.2624286 912.11054897 50.26307851 C912.11625568 52.42387413 912.12322111 54.58466673 912.1313467 56.74545461 C912.14926046 62.59882297 912.14811296 68.45204128 912.14240432 74.3054288 C912.13930972 79.19846581 912.14540799 84.09147411 912.15144306 88.98450702 C912.16548101 100.53132737 912.16393321 112.07807372 912.15254116 123.62489492 C912.14106215 135.52248872 912.15513378 147.41985705 912.18193763 159.31742114 C912.20411588 169.54615609 912.21072716 179.77482037 912.20486122 190.00357765 C912.20149538 196.10662635 912.20388207 202.20953055 912.22111225 208.31255895 C912.2366129 214.05333407 912.23259093 219.79377598 912.21380711 225.53453809 C912.21012982 227.63592448 912.21320446 229.73733573 912.22369289 231.83869916 C912.28693293 245.56137651 911.95057127 257.07935318 902.76899624 268.12098867 C894.59744547 276.07586952 884.48973543 279.25121113 873.3068794 279.25645167 C872.02932954 279.25946764 870.75177967 279.2624836 869.43551618 279.26559097 C868.02233514 279.26389212 866.60915421 279.26210139 865.1959734 279.26022893 C863.68501303 279.26187912 862.17405309 279.26396564 860.66309386 279.26644903 C856.49574201 279.27201837 852.3284107 279.27134278 848.16105631 279.26967144 C843.63297192 279.26894095 839.10489335 279.27396187 834.57681143 279.27824646 C825.58905536 279.28583122 816.60130523 279.28801976 807.6135463 279.28857552 C796.85086618 279.28948868 786.08819157 279.2961548 775.32551382 279.30292234 C749.31168067 279.3189892 723.2978481 279.32488627 697.28401089 279.32967109 C684.98074518 279.33200622 672.67747993 279.33560876 660.37421459 279.33936647 C618.26867409 279.35220219 576.16313385 279.36292167 534.05759144 279.36636907 C531.41401682 279.3665907 528.77044219 279.36681249 526.12686757 279.36703442 C523.47686766 279.36725506 520.82686775 279.36747554 518.17686784 279.36769587 C512.86040934 279.36813842 507.54395084 279.36858554 502.22749233 279.36903554 C500.90931782 279.36914493 499.5911433 279.36925432 498.23302411 279.36936703 C455.48139213 279.37299848 412.72977803 279.38892176 369.97815244 279.41222591 C324.7909902 279.4368127 279.60383766 279.45054136 234.41666853 279.45173699 C229.45787438 279.45190844 224.49908022 279.45212387 219.54028606 279.45237142 C218.31926912 279.45242719 217.09825217 279.45248296 215.84023471 279.45254041 C196.17695592 279.45369182 176.51369451 279.46472142 156.85042159 279.47925847 C137.09272093 279.49361296 117.33504258 279.49686638 97.57733814 279.4888185 C85.8354482 279.48435739 74.09363018 279.48824209 62.35174966 279.504057 C54.50983293 279.51379293 46.66796669 279.51264201 38.82605044 279.50262077 C34.35701273 279.49721878 29.88811334 279.49655073 25.41908698 279.50912949 C21.34995734 279.52048715 17.28107828 279.51792357 13.21195722 279.50446242 C11.75244627 279.50203557 10.29291589 279.50458711 8.83342636 279.5128589 C-4.54084606 279.58364911 -16.01007155 278.30916626 -26.29350376 269.12880117 C-34.0833843 261.07435864 -36.76086253 252.7109219 -36.68118382 241.65458852 C-36.68656935 240.74402774 -36.69195489 239.83346697 -36.69750363 238.89531344 C-36.71172523 235.86704514 -36.7046938 232.83921756 -36.6975565 229.81093007 C-36.70326311 227.6304303 -36.71022849 225.44993352 -36.71835423 223.26944143 C-36.73626902 217.36235617 -36.73512029 211.45541959 -36.72941184 205.54831535 C-36.7263174 200.61054253 -36.73241534 195.67279816 -36.73845059 190.7350294 C-36.75248887 179.08273385 -36.75094045 167.43051162 -36.73954868 155.77821523 C-36.7280696 143.77154884 -36.74214132 131.76514018 -36.76894516 119.75849956 C-36.7911227 109.43634727 -36.79773484 99.11426501 -36.79186875 88.79209059 C-36.78850274 82.63315104 -36.79089068 76.47435467 -36.80811977 70.31543523 C-36.8236193 64.52213149 -36.81959968 58.72915797 -36.80081463 52.93586713 C-36.79713703 50.81513005 -36.80021289 48.69436834 -36.81070042 46.573654 C-36.87706597 32.03901939 -36.5348556 20.38512394 -25.93412876 9.36317617 C-18.25733216 2.8674252 -9.92684938 0.0066498 0 0 Z M-24.29350376 18.12880117 C-29.20179935 25.92361302 -30.44374114 32.62167198 -30.43394566 41.7490862 C-30.43691678 42.61609932 -30.4398879 43.48311244 -30.44294906 44.37639868 C-30.45161932 47.28109928 -30.4531429 50.18575858 -30.45463657 53.09047109 C-30.45926595 55.17347979 -30.46429077 57.25648765 -30.46968174 59.33949453 C-30.48279671 64.99877999 -30.48924901 70.65805359 -30.4936924 76.31735188 C-30.49662475 79.85442608 -30.50072988 83.39149704 -30.50519657 86.92856961 C-30.51886949 97.9992015 -30.528537 109.06982599 -30.53239846 120.14046574 C-30.53687801 132.91240674 -30.55442206 145.68424066 -30.58339906 158.4561491 C-30.6050289 168.33318444 -30.61510345 178.21018968 -30.61643958 188.08724844 C-30.61748672 193.98407263 -30.62337531 199.88079613 -30.64125919 205.77759534 C-30.65776216 211.3270116 -30.65988449 216.87625171 -30.65112019 222.4256838 C-30.65035099 224.45815231 -30.65467694 226.49063038 -30.66457844 228.52307492 C-30.98147204 246.53817878 -30.98147204 246.53817878 -23.09819126 262.30848867 C-17.65065029 267.80319449 -11.01956003 271.74321872 -3.21415891 272.38003417 C-1.5567893 272.38090867 -1.5567893 272.38090867 0.13406253 272.38180083 C2.0597565 272.39008006 2.0597565 272.39008006 4.02435338 272.39852655 C5.44459449 272.39455106 6.86483509 272.39039214 8.28507519 272.38607007 C9.80346373 272.38876349 11.32185093 272.39233133 12.84023559 272.39669454 C17.02821646 272.40616942 21.21611054 272.40314644 25.40409572 272.398139 C29.9544949 272.39487816 34.5048753 272.40315007 39.05526853 272.40995735 C47.03568924 272.42027675 55.01608569 272.42309778 62.99651241 272.42104512 C74.8637005 272.41800017 86.73086165 272.42630788 98.59804451 272.43679438 C121.02427556 272.45615719 143.45049748 272.46176345 165.8767359 272.46290849 C183.19249103 272.46382683 200.50824258 272.46793963 217.82399654 272.47430974 C222.80452704 272.47610477 227.78505754 272.4778844 232.76558805 272.4796595 C234.62273939 272.48032264 234.62273939 272.48032264 236.51740894 272.48099918 C271.35281599 272.49331117 306.18822178 272.50119995 341.0236311 272.50031263 C342.33756273 272.50028147 343.65149436 272.50025031 345.0052421 272.50021821 C350.99750743 272.50006865 356.98977277 272.4998951 362.9820381 272.49971044 C365.65416185 272.49962819 368.3262856 272.4995479 370.99840934 272.49946781 C372.3358558 272.49942702 373.67330226 272.49938498 375.01074872 272.49934169 C417.3029002 272.49798118 459.5950182 272.51261582 501.8871603 272.54042226 C548.62756649 272.57113662 595.36795211 272.58835567 642.10836911 272.58649582 C647.09015703 272.58634655 652.07194495 272.58624914 657.05373287 272.58618718 C658.28041727 272.58616388 659.50710166 272.58614057 660.77095831 272.58611655 C680.53133919 272.58605495 700.29169185 272.59883927 720.05206433 272.61605171 C739.90383437 272.63298639 759.755563 272.63499903 779.60733625 272.62183307 C791.4074323 272.61442948 803.20740278 272.61814388 815.00748558 272.63771775 C822.8856502 272.64968402 830.7637235 272.64716412 838.64188387 272.63277675 C843.13329359 272.62498537 847.62445966 272.62354331 852.11585256 272.63969146 C856.20297631 272.65425769 860.28965367 272.65036699 864.37675761 272.63184372 C865.84499982 272.62840492 867.31327706 272.63164557 868.78148358 272.64244614 C879.33153269 272.71484903 889.18712763 271.66996428 897.11858463 264.02721292 C906.14106167 253.24048123 905.55641744 241.96757994 905.45112514 228.62220937 C905.45598777 226.45772269 905.46343299 224.29324052 905.47325039 222.12877065 C905.49197992 216.27964749 905.47329478 210.43119884 905.44658613 204.58212858 C905.42386974 198.44844971 905.43217866 192.31480192 905.43607998 186.18109304 C905.43784278 175.88612584 905.41574655 165.59142282 905.37885952 155.29652578 C905.33649509 143.40505434 905.32951347 131.51396923 905.34198344 119.6224376 C905.35338242 108.16412587 905.34206786 96.70594976 905.31963634 85.2476576 C905.31036327 80.37904197 905.3085884 75.51050953 905.31280804 70.64188749 C905.31658242 64.90842085 905.3003005 59.17534604 905.26868725 53.44196874 C905.26022201 51.34136814 905.25848669 49.24072771 905.26406765 47.14011747 C905.27054291 44.26643781 905.25227208 41.39391745 905.22788906 38.52035695 C905.23544771 37.69485839 905.24300636 36.86935983 905.25079405 36.01884615 C905.12765009 27.78049382 902.04087765 20.77933299 896.48383999 14.69911367 C890.21631213 9.16164949 883.74264851 7.00549069 875.51976424 7 C874.23877321 6.99672781 872.95778217 6.99345561 871.63797322 6.99008426 C870.21051614 6.99149439 868.78305916 6.99299641 867.35560226 6.99458009 C865.83753781 6.99262755 864.31947386 6.99023886 862.8014107 6.98745212 C858.60503162 6.98103673 854.40867163 6.98089172 850.21228857 6.98172953 C845.65625755 6.98156033 841.10023344 6.97565763 836.54420584 6.97048867 C827.49675446 6.96115016 818.44930797 6.95723852 809.40185236 6.9549697 C798.56947798 6.95201091 787.73711012 6.94331547 776.90473915 6.93455542 C750.72100594 6.91369768 724.5372716 6.90323949 698.35353202 6.89442581 C685.9720013 6.89022157 673.59047106 6.88499931 661.20894074 6.87974128 C618.84284846 6.86185076 576.47675605 6.84685342 534.11066055 6.83942109 C531.45025463 6.83894633 528.78984871 6.83847044 526.12944279 6.83799343 C524.81009543 6.83775706 523.49074806 6.83752068 522.13142047 6.83727714 C516.11648216 6.83619732 510.10154386 6.835107 504.08660556 6.83400296 C502.74694532 6.83375773 501.40728507 6.83351387 500.06762483 6.83327139 C457.0382006 6.82548086 414.00880364 6.8030956 370.97939133 6.77059496 C324.83989653 6.73575699 278.70041699 6.71512056 232.5609085 6.71177685 C227.57208613 6.7113593 222.58326377 6.71087973 217.59444141 6.71035367 C216.36601345 6.71023048 215.13758548 6.71010729 213.87193242 6.70998036 C194.07962757 6.70764565 174.28735464 6.69197068 154.49506118 6.67151183 C134.61170125 6.65128443 114.72837977 6.6457619 94.84501145 6.65528246 C83.02471689 6.66050931 71.20455009 6.65456415 59.38427384 6.63274779 C51.49385524 6.61928214 43.60352498 6.62027908 35.71310558 6.63314975 C31.21383794 6.64007462 26.7148153 6.64061998 22.21556912 6.62358966 C18.1224664 6.60822252 14.02980633 6.61126758 9.93671695 6.62899994 C8.46518165 6.6321499 6.9936128 6.62859524 5.5221159 6.61750819 C-6.70003197 6.53141844 -16.0339082 8.62756705 -24.29350376 18.12880117 Z " fill="#A5A5A5" transform="translate(42.293503761291504,9.871198832988739)"/>
<path d="M0 0 C0.65121826 0.35698975 1.30243652 0.71397949 1.97338867 1.08178711 C7.00532812 3.83413724 12.04753699 6.56422377 17.11328125 9.25390625 C18.13357422 9.79853516 19.15386719 10.34316406 20.20507812 10.90429688 C22.29352362 12.01874705 24.38472469 13.12804726 26.47851562 14.23242188 C38.41649047 20.63020496 38.41649047 20.63020496 42.4375 25.875 C43.31927745 29.20615926 42.81612906 31.67718884 42 35 C39.33461182 38.91067695 36.72409713 41.04262816 32.58203125 43.27734375 C31.50550293 43.86588135 30.42897461 44.45441895 29.31982422 45.06079102 C28.16240723 45.68010498 27.00499023 46.29941895 25.8125 46.9375 C24.59586761 47.59898617 23.37989394 48.26168522 22.16455078 48.92553711 C19.66509476 50.29001344 17.16323353 51.64991607 14.65966797 53.00683594 C9.20147652 55.97171306 3.78914012 59.0181521 -1.625 62.0625 C-3.68736633 63.21898841 -5.74986649 64.37523819 -7.8125 65.53125 C-8.83085937 66.10230469 -9.84921875 66.67335938 -10.8984375 67.26171875 C-14.03552164 69.01990823 -17.17381873 70.77591344 -20.3125 72.53125 C-30.38704457 78.16636267 -40.45406694 83.81401398 -50.5 89.5 C-59.64544522 94.6760707 -68.79699168 99.84132714 -77.98046875 104.94970703 C-82.77325449 107.6169768 -87.54508224 110.30538799 -92.26171875 113.10546875 C-93.06826904 113.57637939 -93.87481934 114.04729004 -94.70581055 114.5324707 C-96.17369713 115.3914585 -97.63320838 116.26502665 -99.08129883 117.15698242 C-104.04543822 120.03269644 -108.28684602 120.73636865 -114 120 C-114.66 119.67 -115.32 119.34 -116 119 C-115.41531192 115.5933508 -114.32785502 113.95419996 -111.89646912 111.52897644 C-111.23352341 110.86046158 -110.5705777 110.19194672 -109.88754272 109.50317383 C-109.15564728 108.78049316 -108.42375183 108.0578125 -107.66967773 107.31323242 C-106.90209641 106.54360672 -106.13451508 105.77398102 -105.34367371 104.98103333 C-102.79751335 102.43185882 -100.24075097 99.89360811 -97.68359375 97.35546875 C-95.90998558 95.5849188 -94.1369681 93.81377696 -92.36451721 92.04206848 C-88.6423297 88.32448897 -84.91546363 84.61167029 -81.18432617 80.90307617 C-76.41489593 76.16240649 -71.65465634 71.4126208 -66.89735317 66.65978527 C-63.23200462 62.99860812 -59.56383359 59.3402705 -55.89463997 55.68294716 C-54.13961616 53.9336007 -52.38504676 52.18379823 -50.63094902 50.43352318 C-48.16856624 47.97806494 -45.70284626 45.52600879 -43.23608398 43.07495117 C-42.51835815 42.3583432 -41.80063232 41.64173523 -41.06115723 40.90341187 C-37.09028926 36.96575723 -33.0264276 33.19526545 -28.78067017 29.55494881 C-25.92135709 27.05808805 -23.24441646 24.38756847 -20.56640625 21.69921875 C-20.00300034 21.13676956 -19.43959442 20.57432037 -18.8591156 19.99482727 C-17.68585603 18.82224072 -16.51382805 17.64842062 -15.34301758 16.47338867 C-13.54557764 14.67052659 -11.74277339 12.87315015 -9.93945312 11.07617188 C-8.79394953 9.93000853 -7.64875561 8.78353558 -6.50390625 7.63671875 C-5.96544571 7.10028244 -5.42698517 6.56384613 -4.87220764 6.01115417 C-2.09156438 3.26565592 -2.09156438 3.26565592 0 0 Z " fill="#FD3A44" transform="translate(196,119)"/>
<path d="M0 0 C-0.56959153 3.62613199 -1.92374534 5.25517741 -4.5625 7.75 C-5.20316406 8.36359375 -5.84382813 8.9771875 -6.50390625 9.609375 C-7.24447266 10.29773438 -7.24447266 10.29773438 -8 11 C-10.15292894 9.92851916 -12.29900645 8.84618418 -14.4375 7.74609375 C-15.7059375 7.09833984 -15.7059375 7.09833984 -17 6.4375 C-18.2684375 5.78587891 -18.2684375 5.78587891 -19.5625 5.12109375 C-26.93421074 1.73057935 -35.08883615 2.07447355 -42.6875 4.625 C-51.19233124 8.09487409 -56.89624216 12.72575655 -61 21 C-64.49514284 29.38834282 -64.61664778 37.36986352 -62 46 C-57.80457497 55.28605222 -51.75458279 61.43417181 -42.3125 65.24609375 C-33.93342187 67.97778645 -25.22735105 67.43747268 -17.21875 63.703125 C-8.00668109 58.44682686 -6.12114311 54.30285779 -2 44 C-11.9 44 -21.8 44 -32 44 C-32 39.38 -32 34.76 -32 30 C-25.8944529 29.97535487 -19.78893449 29.95716629 -13.68334961 29.94506836 C-11.60456844 29.94002712 -9.52579084 29.93319426 -7.44702148 29.92456055 C-4.46597414 29.91248578 -1.48497351 29.90676976 1.49609375 29.90234375 C2.89921059 29.89460182 2.89921059 29.89460182 4.33067322 29.88670349 C5.19149002 29.88662796 6.05230682 29.88655243 6.93920898 29.88647461 C7.70087875 29.884254 8.46254852 29.88203339 9.24729919 29.87974548 C11 30 11 30 12 31 C13.02085141 43.51798117 11.42816405 55.53882854 3.8203125 65.9375 C-4.32103042 75.16202588 -14.48105907 80.4586923 -26.75 81.23828125 C-42.40422906 81.64921628 -53.87728362 78.08604406 -65.75 67.5625 C-76.52858811 55.28688576 -79.8413016 44.43365566 -79.17480469 28.2265625 C-78.27600809 16.77820365 -71.82849153 7.38260684 -63.6875 -0.3125 C-44.36944653 -16.44339986 -19.26526915 -14.87730112 0 0 Z " fill="#000000" transform="translate(373,140)"/>
<path d="M0 0 C3.12484488 1.07337721 5.89029685 2.60732902 8.75 4.25 C9.56726563 4.69964111 10.38453125 5.14928223 11.2265625 5.61254883 C13.8303588 7.05368875 16.41638581 8.52302417 19 10 C19.82048828 10.46519043 20.64097656 10.93038086 21.48632812 11.40966797 C25.76327445 13.83513337 30.02879823 16.27974719 34.2890625 18.734375 C40.61483651 22.36752605 46.99333127 25.90372549 53.375 29.4375 C88.41468938 48.86016554 88.41468938 48.86016554 105 59 C103.34763349 63.29067546 100.1094793 66.1429553 96.8984375 69.296875 C96.30197418 69.89050842 95.70551086 70.48414185 95.0909729 71.09576416 C93.1903019 72.98526627 91.28278526 74.86768392 89.375 76.75 C88.08287532 78.03209065 86.79120324 79.31463761 85.5 80.59765625 C82.33855521 83.73708432 79.1709539 86.87017801 76 90 C73.3091782 87.31173845 70.62051751 84.62172739 67.94921875 81.9140625 C66.86201215 80.81767563 65.7747721 79.72132192 64.6875 78.625 C63.89182617 77.81675781 63.89182617 77.81675781 63.08007812 76.9921875 C60.35949199 74.25531043 57.6010492 71.63762074 54.64916992 69.15136719 C48.86215837 64.10754856 43.5108856 58.62169596 38.1035347 53.17869949 C36.13047042 51.19275106 34.15419319 49.21004946 32.17709351 47.2281189 C27.99022787 43.02989832 23.80734042 38.82772804 19.625 34.625 C14.7555371 29.73192993 9.88445402 24.84049543 5.00916672 19.953228 C3.06050807 17.99807949 1.11487848 16.03995024 -0.83065796 14.08169556 C-2.01765493 12.89106844 -3.20479118 11.70058017 -4.39208984 10.51025391 C-4.93337524 9.96380219 -5.47466064 9.41735046 -6.03234863 8.8543396 C-8.75390834 6.08094864 -8.75390834 6.08094864 -12 4 C-11.67 3.01 -11.34 2.02 -11 1 C-7.49757606 -0.75121197 -3.82841595 -0.45626741 0 0 Z " fill="#00EF76" transform="translate(91,60)"/>
<path d="M0 0 C0.66 0.66 1.32 1.32 2 2 C2.33 1.01 2.66 0.02 3 -1 C7.29 -1 11.58 -1 16 -1 C16.09075377 7.04148236 16.16397463 15.08255946 16.20724869 23.12441826 C16.22802924 26.8595079 16.25616923 30.5942258 16.30175781 34.32910156 C16.34556031 37.94069135 16.36920859 41.551926 16.37950897 45.16376114 C16.38683928 46.53434964 16.40115198 47.90492106 16.42292023 49.27535629 C16.57641601 59.34921829 15.34067606 66.79247556 9.875 75.3125 C3.00689893 81.73268144 -4.67280815 84.21380382 -14 84 C-22.51877794 83.38603402 -29.04258945 80.16569532 -34.9296875 73.96875 C-39.00174659 68.9396632 -39.00174659 68.9396632 -38.99609375 65.8984375 C-37.4809331 63.01071956 -35.47422797 62.72733774 -32.4375 61.75 C-31.42558594 61.41484375 -30.41367187 61.0796875 -29.37109375 60.734375 C-28.58863281 60.49203125 -27.80617188 60.2496875 -27 60 C-26.29875 61.093125 -25.5975 62.18625 -24.875 63.3125 C-22.34318879 66.82574365 -20.18387475 68.57748259 -16 70 C-10.22587871 70.7484972 -5.60239919 69.52435974 -1 66 C1.85662468 61.26871537 2.33481192 57.46859474 2 52 C1.071875 52.639375 0.14375 53.27875 -0.8125 53.9375 C-6.66402874 57.7237833 -12.20553828 57.59303282 -19 57 C-26.6192302 55.02991867 -33.38269838 50.15650877 -37.57421875 43.5 C-41.92395659 35.12457355 -43.28163766 27.21600659 -40.875 18 C-37.86986604 8.92894748 -32.25713377 3.55566001 -24 -1 C-15.99690879 -4.7461278 -7.78227527 -3.61319923 0 0 Z M-24.25 16.375 C-27.47746179 21.21619269 -28.51188737 25.15236258 -27.53125 30.98046875 C-26.23900388 35.89290436 -24.09734957 39.6041308 -19.8125 42.4375 C-15.62375229 44.5138964 -11.57718314 44.81854735 -7 44 C-2.13020316 41.61104306 0.31913003 38.66669958 3 34 C4.81020278 28.56939165 4.70097747 23.90256228 2.3125 18.75 C0.04824738 14.64856021 -2.80096361 12.09951819 -7 10 C-14.61055786 9.07151194 -18.90470978 10.73274922 -24.25 16.375 Z " fill="#000000" transform="translate(561,164)"/>
<path d="M0 0 C41.96428571 0 41.96428571 0 52.8125 6.75 C59.03474336 13.15002174 61.37555231 20.52694063 61.28515625 29.26953125 C60.60538613 35.77856298 57.76734668 42.48356631 53 47 C46.6664394 51.25715441 41.76330349 54.13543075 34.01953125 54.09765625 C32.97128174 54.09515869 31.92303223 54.09266113 30.84301758 54.09008789 C29.51294678 54.08098389 28.18287598 54.07187988 26.8125 54.0625 C22.584375 54.041875 18.35625 54.02125 14 54 C14 64.89 14 75.78 14 87 C9.38 87 4.76 87 0 87 C0 58.29 0 29.58 0 0 Z M14 13 C14 22.24 14 31.48 14 41 C19.4759375 41.1546875 19.4759375 41.1546875 25.0625 41.3125 C26.19953369 41.35802002 27.33656738 41.40354004 28.50805664 41.45043945 C35.38828708 41.54419204 38.92811925 40.74155473 44 36 C46.25776131 32.19002779 47.01513211 29.86253 46.9375 25.4375 C45.6268741 20.63187169 43.78693078 17.28712987 39.7043457 14.34643555 C36.67815002 12.83975782 34.83717704 12.65077357 31.48046875 12.70703125 C30.09831177 12.71827026 30.09831177 12.71827026 28.68823242 12.72973633 C27.53299072 12.75704834 26.37774902 12.78436035 25.1875 12.8125 C21.495625 12.874375 17.80375 12.93625 14 13 Z " fill="#000000" transform="translate(689,132)"/>
<path d="M0 0 C0.65121826 0.35698975 1.30243652 0.71397949 1.97338867 1.08178711 C7.00532812 3.83413724 12.04753699 6.56422377 17.11328125 9.25390625 C18.13357422 9.79853516 19.15386719 10.34316406 20.20507812 10.90429688 C22.29352362 12.01874705 24.38472469 13.12804726 26.47851562 14.23242188 C38.41649047 20.63020496 38.41649047 20.63020496 42.4375 25.875 C43.31927745 29.20615926 42.81612906 31.67718884 42 35 C39.23065743 39.1102282 36.37910098 41.23679484 32.0546875 43.59375 C31.48477081 43.90775757 30.91485413 44.22176514 30.32766724 44.54528809 C28.51543546 45.54031647 26.69544486 46.52009547 24.875 47.5 C23.67656634 48.15660935 22.47864486 48.81415444 21.28125 49.47265625 C14.59594891 53.13432636 7.84940432 56.65498783 1 60 C-9.21412656 50.53803003 -19.22359691 40.91388376 -29 31 C-23.64602018 24.47854246 -17.68698091 18.60578929 -11.6875 12.6875 C-9.68853383 10.71511498 -7.6929078 8.73943603 -5.69921875 6.76171875 C-4.82096436 5.89506592 -3.94270996 5.02841309 -3.0378418 4.13549805 C-0.96272827 2.17041329 -0.96272827 2.17041329 0 0 Z " fill="#FECB00" transform="translate(196,119)"/>
<path d="M0 0 C4.7348511 4.87411143 7.26062566 10.41479797 7.23852539 17.22167969 C7.23844986 18.00218689 7.23837433 18.78269409 7.23829651 19.58685303 C7.23313522 20.41928528 7.22797394 21.25171753 7.22265625 22.109375 C7.2212413 22.96936096 7.21982635 23.82934692 7.21836853 24.71539307 C7.21278097 27.45613109 7.20023075 30.19678676 7.1875 32.9375 C7.18248339 34.7981759 7.17792077 36.65885309 7.17382812 38.51953125 C7.16281561 43.07555246 7.14555951 47.63151228 7.125 52.1875 C2.505 52.1875 -2.115 52.1875 -6.875 52.1875 C-7.37 50.2075 -7.37 50.2075 -7.875 48.1875 C-8.596875 48.80625 -9.31875 49.425 -10.0625 50.0625 C-16.00295796 54.55084602 -21.62841572 54.97279514 -28.875 54.1875 C-35.59307804 52.4372363 -40.1118607 48.98476865 -43.875 43.1875 C-46.38400937 38.16948127 -46.19306156 33.53671335 -44.875 28.1875 C-41.98956199 22.63036014 -38.19376522 18.45808393 -32.32421875 16.2109375 C-23.57313882 13.62071467 -16.63306996 13.6851943 -7.875 16.1875 C-8.75906273 13.21383445 -9.55803967 11.4747453 -11.875 9.375 C-16.23065892 7.65088501 -20.24933073 7.61024078 -24.875 8.1875 C-28.65865532 9.88153089 -28.65865532 9.88153089 -30.875 13.1875 C-35.73463179 12.58004603 -39.6155518 10.45991033 -43.875 8.1875 C-42.32143885 2.31849121 -38.15056489 -0.84862665 -33.12890625 -3.859375 C-22.13091947 -8.87351091 -9.79947758 -6.17793152 0 0 Z M-30.875 31.5625 C-32.13382247 34.15690134 -32.13382247 34.15690134 -31.3125 36.875 C-29.66147917 39.53099004 -28.72673935 40.03966216 -25.875 41.1875 C-21.27346649 41.90701251 -17.75842147 41.62087657 -13.5625 39.5625 C-10.65253658 36.99090442 -8.75296239 34.58227817 -6.875 31.1875 C-6.875 30.1975 -6.875 29.2075 -6.875 28.1875 C-14.94525667 24.52450828 -24.82892128 24.38278152 -30.875 31.5625 Z " fill="#000000" transform="translate(821.875,166.8125)"/>
<path d="M0 0 C5.78269473 4.24966065 9.72001668 10.20754968 12 17 C11 20 11 20 7.61352539 21.7175293 C6.11303575 22.34797424 4.60731148 22.96604848 3.09765625 23.57421875 C2.30475693 23.90291458 1.5118576 24.23161041 0.69493103 24.57026672 C-0.9834079 25.26365988 -2.66393738 25.95177074 -4.34643555 26.63500977 C-6.92779843 27.68355922 -9.50237907 28.74747485 -12.07617188 29.81445312 C-13.70535563 30.48528289 -15.33490125 31.15523464 -16.96484375 31.82421875 C-17.73884018 32.14291428 -18.51283661 32.4616098 -19.31028748 32.78996277 C-24.76540389 35 -24.76540389 35 -27 35 C-26.236875 35.969375 -25.47375 36.93875 -24.6875 37.9375 C-24.25824219 38.48277344 -23.82898438 39.02804688 -23.38671875 39.58984375 C-20.80879559 42.21133744 -17.7347557 42.20968888 -14.25 42.3125 C-9.00997659 42.26653488 -6.2142268 41.07287371 -2 38 C-1.34 37.01 -0.68 36.02 0 35 C4.10958767 36.45044271 7.43258745 38.51110752 11 41 C10.52373004 45.2864296 8.12632867 47.22104119 5 50 C-2.93816196 55.91139721 -10.30340715 56.90486638 -20 56 C-28.65975909 53.96693473 -34.81115194 50.55641685 -39.75 43.0625 C-44.79260474 34.87667163 -45.47286738 25.43828256 -43.34765625 16.1484375 C-40.62313417 8.59461233 -36.01493538 2.30454743 -28.8125 -1.4375 C-19.32929472 -5.74453621 -9.01546145 -5.19352224 0 0 Z M-25.8125 13.4375 C-29.07885535 17.26380198 -30 18.90782446 -30 24 C-21.82602049 21.41874331 -13.93359166 18.22988119 -6 15 C-6 14.01 -6 13.02 -6 12 C-12.37085323 5.62914677 -19.6426243 8.09027439 -25.8125 13.4375 Z " fill="#000000" transform="translate(649,165)"/>
<path d="M0 0 C6.19483113 4.91634816 10.17630695 11.75126433 11.70703125 19.52734375 C12.63081582 28.02313303 10.90884956 35.64996249 6.19921875 42.82421875 C1.49059196 48.64977561 -4.81470019 53.16138695 -12.29296875 54.52734375 C-23.0579324 55.27671204 -31.84584235 54.25927562 -40.43359375 47.40625 C-46.87810738 40.8940419 -49.41681877 33.85825311 -49.60546875 24.90234375 C-49.50371742 15.98522697 -47.67862415 9.72280937 -41.54296875 3.15234375 C-29.85932618 -7.61749438 -13.36346686 -8.58266952 0 0 Z M-30.29296875 11.52734375 C-34.03365532 16.35086064 -35.66500171 20.17404431 -35.57421875 26.3359375 C-34.9059384 31.54295525 -32.45903157 35.44457113 -28.66796875 38.96484375 C-23.91782388 42.08993906 -19.89528687 42.11529318 -14.29296875 41.52734375 C-10.15712131 40.23440463 -7.25095142 37.91846314 -4.91796875 34.27734375 C-2.32601871 29.01489973 -1.55785962 24.0603083 -3.29296875 18.40234375 C-5.414769 13.39884269 -9.48333436 9.93216095 -14.29296875 7.52734375 C-20.81120252 6.71754281 -25.02807483 7.60448162 -30.29296875 11.52734375 Z " fill="#000000" transform="translate(503.29296875,166.47265625)"/>
<path d="M0 0 C5.95077109 4.41087857 10.10753386 11.49029743 11.28662109 18.78759766 C12.05802614 26.95438708 11.60641689 34.82033404 6.96875 41.8203125 C6.55625 42.45324219 6.14375 43.08617187 5.71875 43.73828125 C1.2371118 49.70955488 -5.72134758 53.43660248 -13.03125 54.8203125 C-23.31227704 55.75217379 -32.30388685 54.16559013 -40.46875 47.5703125 C-46.25181825 42.07165745 -49.11068541 35.26326193 -49.32373047 27.32397461 C-49.39242794 20.01942275 -49.19284931 14.10172646 -45.03125 7.8203125 C-44.61875 7.18738281 -44.20625 6.55445313 -43.78125 5.90234375 C-33.40773237 -7.91918968 -13.90864274 -8.07771174 0 0 Z M-32.34375 14.3828125 C-35.83446449 19.42495566 -35.64258051 24.89380283 -35.03125 30.8203125 C-32.57557448 35.82261448 -29.0342193 39.31882785 -24.03125 41.8203125 C-19.07642906 42.36391696 -15.15999148 42.38468324 -10.65625 40.1328125 C-6.506634 36.4771984 -3.33858556 33.25419639 -2.828125 27.55078125 C-2.72955544 22.20338256 -2.86981682 18.35170005 -6.03125 13.8203125 C-10.02858333 9.89759606 -13.14347048 7.67011221 -18.78125 7.5078125 C-25.03405156 7.5798909 -28.18759801 9.77734678 -32.34375 14.3828125 Z " fill="#000000" transform="translate(438.03125,166.1796875)"/>
<path d="M0 0 C4.95 0 9.9 0 15 0 C20.46198857 11.4841811 25.246601 23.20858571 30 35 C33.55779174 27.39892228 36.75064494 19.71169873 39.75 11.875 C40.53407291 9.82981306 41.32040358 7.78548974 42.109375 5.7421875 C42.61936035 4.40969971 42.61936035 4.40969971 43.13964844 3.05029297 C44 1 44 1 45 0 C47.69654854 -0.07319621 50.36691458 -0.09242537 53.0625 -0.0625 C53.82111328 -0.05798828 54.57972656 -0.05347656 55.36132812 -0.04882812 C57.24091871 -0.0370068 59.12046899 -0.01907078 61 0 C55.36074996 13.86859774 49.44204538 27.57800035 43.23669434 41.20001221 C36.93525657 55.04009912 30.93114645 68.99771471 25 83 C20.05 83 15.1 83 10 83 C10.84474523 78.77627385 11.69429982 76.29776526 13.609375 72.578125 C14.11597656 71.55203125 14.62257813 70.5259375 15.14453125 69.46875 C16.21175673 67.32910574 17.29767126 65.19867834 18.40234375 63.078125 C18.90378906 62.046875 19.40523437 61.015625 19.921875 59.953125 C20.39206055 59.02661133 20.86224609 58.10009766 21.34667969 57.14550781 C22.85956935 49.8614755 17.80707966 42.05271632 14.8046875 35.546875 C13.99868586 33.77604715 13.19269664 32.00521366 12.38671875 30.234375 C11.12626469 27.47981212 9.86402588 24.72607482 8.60107422 21.97265625 C7.37294117 19.29101846 6.15110708 16.60657568 4.9296875 13.921875 C4.55053192 13.10096375 4.17137634 12.28005249 3.7807312 11.43426514 C3.25480881 10.27716034 3.25480881 10.27716034 2.71826172 9.09667969 C2.25551346 8.08815948 2.25551346 8.08815948 1.78341675 7.05926514 C1 5 1 5 0 0 Z " fill="#000000" transform="translate(829,163)"/>
<path d="M0 0 C4.95 0 9.9 0 15 0 C15 28.71 15 57.42 15 87 C10.05 87 5.1 87 0 87 C0 58.29 0 29.58 0 0 Z " fill="#000000" transform="translate(585,132)"/>
<path d="M0 0 C4.62 0 9.24 0 14 0 C14 28.71 14 57.42 14 87 C9.38 87 4.76 87 0 87 C0 58.29 0 29.58 0 0 Z " fill="#000000" transform="translate(756,132)"/>
<path d="M0 0 C5.17910446 3.02295009 9.78433344 7.79050031 11.6875 13.5 C12.90947308 29.26545596 12.90947308 29.26545596 7.6875 35.5 C1.06398702 41.56377949 -4.09283722 42.87257959 -13.015625 42.7734375 C-19.40206895 42.24375613 -23.39116547 39.77163519 -27.6875 35.125 C-32.34900796 29.13344221 -33.19677712 22.92121175 -32.3125 15.5 C-30.53231703 8.85895814 -27.12310412 4.1844787 -21.3125 0.5 C-14.79876414 -2.63824029 -6.673119 -2.94555644 0 0 Z M-23.75 11.625 C-26.2503279 16.66895152 -26.36446073 22.22585003 -24.65234375 27.5546875 C-22.71081646 31.47136161 -20.14431834 33.93650743 -16.3046875 35.83984375 C-12.59290494 37.0698266 -9.15020322 37.1933077 -5.3125 36.5 C-0.96696282 34.28623578 2.21272903 31.71627646 4.6875 27.5 C5.91117828 22.57176145 5.99086272 18.58853683 4.625 13.6875 C1.85617741 9.13234026 -1.13990893 6.22419702 -6.3125 4.5 C-14.1865244 3.8438313 -18.8129188 5.29540871 -23.75 11.625 Z " fill="#000000" transform="translate(517.3125,59.5)"/>
<path d="M0 0 C2.98149775 1.58510007 4.06103239 3.15371989 5.375 6.25 C4.385 7.24 3.395 8.23 2.375 9.25 C1.818125 8.96125 1.26125 8.6725 0.6875 8.375 C-0.075625 8.00375 -0.83875 7.6325 -1.625 7.25 C-2.3675 6.87875 -3.11 6.5075 -3.875 6.125 C-8.44147301 4.67203131 -12.34843153 4.37596032 -16.8125 6.08984375 C-20.55182767 8.13135169 -22.97272441 10.11072171 -24.6875 14.0625 C-26.33220072 19.73351352 -25.63740169 24.26269299 -22.9375 29.5625 C-19.83533906 33.16771406 -17.19611911 34.92293184 -12.4140625 35.53125 C-7.56902408 35.72440768 -4.64041747 35.17030361 -0.625 32.25 C0.035 32.25 0.695 32.25 1.375 32.25 C1.684375 31.30125 1.99375 30.3525 2.3125 29.375 C3.375 26.25 3.375 26.25 4.375 24.25 C-0.575 24.25 -5.525 24.25 -10.625 24.25 C-10.625 22.27 -10.625 20.29 -10.625 18.25 C-3.695 18.25 3.235 18.25 10.375 18.25 C10.97279696 30.35538851 10.97279696 30.35538851 6.375 36.25 C0.12139748 41.70768947 -5.09055471 42.61496606 -13.328125 42.5234375 C-19.7484501 41.99094608 -23.71768927 39.51585327 -28 34.8125 C-32.51056781 29.38217954 -33.07701885 24.12987447 -32.93359375 17.25390625 C-32.20806769 10.19150705 -28.84566441 5.91356812 -23.50390625 1.4765625 C-16.59036967 -3.03664017 -7.48188743 -3.47422195 0 0 Z " fill="#000000" transform="translate(328.625,59.75)"/>
<path d="M0 0 C8 0 8 0 9.80688477 1.38598633 C10.18127686 2.02818115 10.55566895 2.67037598 10.94140625 3.33203125 C11.38033203 4.04939453 11.81925781 4.76675781 12.27148438 5.50585938 C12.69751953 6.26705078 13.12355469 7.02824219 13.5625 7.8125 C14.43878488 9.27735404 15.31508727 10.74219761 16.19140625 12.20703125 C17.11824219 13.78871094 18.04507813 15.37039062 19 17 C21.31 20.63 23.62 24.26 26 28 C26.33 18.76 26.66 9.52 27 0 C28.98 0 30.96 0 33 0 C33 13.86 33 27.72 33 42 C26 42 26 42 23.8918457 39.89208984 C23.32554443 38.92480957 22.75924316 37.9575293 22.17578125 36.9609375 C21.53962891 35.90519531 20.90347656 34.84945312 20.24804688 33.76171875 C19.60931641 32.64410156 18.97058594 31.52648437 18.3125 30.375 C17.0171787 28.19516296 15.72161305 26.0154711 14.42578125 23.8359375 C13.86286377 22.86188965 13.29994629 21.8878418 12.7199707 20.88427734 C10.91602893 17.85918606 8.9537249 14.93058735 7 12 C6.67 21.9 6.34 31.8 6 42 C4.02 42 2.04 42 0 42 C0 28.14 0 14.28 0 0 Z " fill="#000000" transform="translate(536,59)"/>
<path d="M0 0 C8.58 0 17.16 0 26 0 C26 1.98 26 3.96 26 6 C19.73 6 13.46 6 7 6 C7 9.96 7 13.92 7 18 C12.61 18 18.22 18 24 18 C24 19.98 24 21.96 24 24 C18.39 24 12.78 24 7 24 C7 27.96 7 31.92 7 36 C13.27 36 19.54 36 26 36 C26 37.98 26 39.96 26 42 C17.42 42 8.84 42 0 42 C0 28.14 0 14.28 0 0 Z " fill="#000000" transform="translate(346,59)"/>
<path d="M0 0 C9.9 0 19.8 0 30 0 C30 1.98 30 3.96 30 6 C26.37 6 22.74 6 19 6 C19 17.88 19 29.76 19 42 C16.69 42 14.38 42 12 42 C12 30.12 12 18.24 12 6 C8.04 6 4.08 6 0 6 C0 4.02 0 2.04 0 0 Z " fill="#000000" transform="translate(438,59)"/>
<path d="M0 0 C9.9 0 19.8 0 30 0 C30 1.98 30 3.96 30 6 C26.37 6 22.74 6 19 6 C19 17.88 19 29.76 19 42 C16.69 42 14.38 42 12 42 C12 30.12 12 18.24 12 6 C8.04 6 4.08 6 0 6 C0 4.02 0 2.04 0 0 Z " fill="#000000" transform="translate(376,59)"/>
<path d="M0 0 C2.31 0 4.62 0 7 0 C7 13.86 7 27.72 7 42 C4.69 42 2.38 42 0 42 C0 28.14 0 14.28 0 0 Z " fill="#000000" transform="translate(426,59)"/>
</svg>
