<?xml version="1.0" encoding="UTF-8"?>
<svg xmlns="http://www.w3.org/2000/svg" xmlns:xlink="http://www.w3.org/1999/xlink" width="132px" height="42px" viewBox="0 0 130 42" version="1.1">
<g id="surface1">
<path style=" stroke:none;fill-rule:nonzero;fill:rgb(35.686275%,65.098041%,49.803922%);fill-opacity:1;" d="M 40.082031 11.953125 C 40.242188 11.953125 40.40625 11.949219 40.574219 11.949219 C 40.804688 11.949219 40.804688 11.949219 41.039062 11.949219 C 41.25 11.949219 41.25 11.949219 41.464844 11.953125 C 41.792969 11.972656 41.792969 11.972656 41.96875 12.152344 C 42.355469 17.449219 41.5 22.914062 37.957031 27.054688 C 35.996094 29.175781 33.945312 30.59375 31.121094 31.277344 C 31.003906 31.277344 30.886719 31.277344 30.765625 31.277344 C 30.695312 31.5 30.625 31.726562 30.550781 31.957031 C 30.21875 32.953125 29.816406 33.917969 29.410156 34.882812 C 29.253906 35.261719 29.09375 35.636719 28.9375 36.015625 C 28.859375 36.207031 28.777344 36.398438 28.695312 36.59375 C 28.070312 38.09375 27.464844 39.601562 26.855469 41.105469 C 25.269531 41.105469 23.683594 41.105469 22.050781 41.105469 C 22.402344 40.050781 22.753906 39.070312 23.214844 38.074219 C 23.277344 37.941406 23.335938 37.8125 23.394531 37.679688 C 23.585938 37.269531 23.773438 36.859375 23.964844 36.449219 C 24.210938 35.910156 24.457031 35.371094 24.707031 34.832031 C 24.765625 34.699219 24.828125 34.566406 24.890625 34.429688 C 25.300781 33.539062 25.695312 32.636719 26.082031 31.734375 C 26.570312 30.605469 27.097656 29.507812 27.6875 28.429688 C 27.777344 28.261719 27.867188 28.097656 27.960938 27.925781 C 29.78125 24.660156 32.136719 21.84375 34.679688 19.125 C 33.351562 19.570312 32.261719 20.808594 31.234375 21.75 C 31.144531 21.828125 31.054688 21.910156 30.964844 21.992188 C 30.550781 22.375 30.183594 22.757812 29.835938 23.203125 C 29.734375 23.332031 29.628906 23.460938 29.519531 23.589844 C 29.402344 23.589844 29.285156 23.589844 29.164062 23.589844 C 29.125 23.6875 29.082031 23.785156 29.039062 23.882812 C 28.746094 24.425781 28.371094 24.886719 27.988281 25.367188 C 26.878906 26.789062 25.773438 28.277344 25.253906 30.027344 C 25.136719 30.027344 25.019531 30.027344 24.898438 30.027344 C 24.839844 30.261719 24.78125 30.496094 24.71875 30.742188 C 24.382812 30.621094 24.382812 30.621094 24.007812 30.382812 C 22.84375 27.699219 23.46875 24.304688 24.46875 21.683594 C 26.132812 17.753906 29.113281 14.996094 32.964844 13.289062 C 35.28125 12.425781 37.613281 11.941406 40.082031 11.953125 Z M 40.082031 11.953125 "/>
<path style=" stroke:none;fill-rule:nonzero;fill:rgb(35.686275%,65.098041%,49.411765%);fill-opacity:1;" d="M 4.425781 16.027344 C 8.875 16.085938 13.359375 17.734375 16.550781 20.890625 C 18.496094 22.90625 18.496094 22.90625 18.496094 23.769531 C 18.613281 23.828125 18.730469 23.886719 18.851562 23.949219 C 20.34375 27.152344 20.796875 30.53125 19.917969 33.957031 C 19.71875 34.414062 19.71875 34.414062 19.5625 34.671875 C 18.980469 34.378906 18.820312 33.746094 18.550781 33.175781 C 16.59375 29.152344 13.59375 25.59375 9.78125 23.234375 C 10.03125 23.804688 10.320312 24.160156 10.769531 24.585938 C 11.515625 25.3125 12.160156 26.097656 12.808594 26.914062 C 13.132812 27.328125 13.132812 27.328125 13.4375 27.617188 C 14.402344 28.609375 15.039062 30 15.726562 31.199219 C 15.789062 31.308594 15.855469 31.414062 15.917969 31.527344 C 16.359375 32.304688 16.359375 32.304688 16.359375 32.707031 C 16.625 32.792969 16.625 32.792969 16.894531 32.886719 C 16.894531 33.0625 16.894531 33.238281 16.894531 33.421875 C 17.019531 33.785156 17.164062 34.132812 17.3125 34.488281 C 17.429688 34.851562 17.429688 34.851562 17.429688 35.566406 C 13.820312 35.769531 10.144531 34.496094 7.425781 32.101562 C 3.917969 28.757812 2.039062 24.523438 1.90625 19.65625 C 1.878906 17.207031 1.878906 17.207031 1.957031 16.265625 C 2.433594 15.785156 3.785156 16.03125 4.425781 16.027344 Z M 8.890625 22.699219 C 9.007812 22.816406 9.125 22.933594 9.246094 23.054688 C 9.246094 22.9375 9.246094 22.820312 9.246094 22.699219 C 9.128906 22.699219 9.011719 22.699219 8.890625 22.699219 Z M 8.890625 22.699219 "/>
<path style=" stroke:none;fill-rule:nonzero;fill:rgb(36.078432%,64.705884%,49.411765%);fill-opacity:1;" d="M 5.15625 1.25 C 7.679688 1.25 10.203125 1.25 12.804688 1.25 C 13.285156 2.222656 13.722656 3.160156 14.109375 4.164062 C 14.160156 4.304688 14.214844 4.445312 14.273438 4.59375 C 14.449219 5.054688 14.628906 5.515625 14.804688 5.976562 C 14.929688 6.304688 15.058594 6.628906 15.183594 6.957031 C 15.445312 7.636719 15.707031 8.316406 15.96875 8.996094 C 16.519531 10.414062 17.066406 11.832031 17.621094 13.253906 C 17.792969 13.707031 17.96875 14.160156 18.144531 14.609375 C 18.683594 16.003906 19.226562 17.394531 19.789062 18.78125 C 20.042969 19.40625 20.296875 20.035156 20.546875 20.664062 C 20.667969 20.957031 20.789062 21.253906 20.910156 21.550781 C 21.078125 21.957031 21.242188 22.367188 21.40625 22.777344 C 21.457031 22.894531 21.507812 23.015625 21.558594 23.136719 C 21.878906 23.949219 21.882812 24.527344 21.695312 25.378906 C 21.578125 25.378906 21.460938 25.378906 21.339844 25.378906 C 21.253906 25.195312 21.164062 25.011719 21.074219 24.824219 C 18.902344 20.347656 16.300781 17.675781 11.738281 15.726562 C 11.527344 15.667969 11.316406 15.609375 11.101562 15.550781 C 10.179688 15.007812 10.003906 14.273438 9.648438 13.292969 C 9.527344 12.976562 9.40625 12.664062 9.285156 12.351562 C 9.144531 11.980469 9.007812 11.613281 8.867188 11.242188 C 8.472656 10.195312 8.066406 9.152344 7.660156 8.109375 C 7.046875 6.539062 6.433594 4.964844 5.828125 3.390625 C 5.761719 3.214844 5.691406 3.039062 5.621094 2.859375 C 5.5625 2.699219 5.5 2.542969 5.4375 2.375 C 5.382812 2.234375 5.328125 2.097656 5.273438 1.953125 C 5.15625 1.609375 5.15625 1.609375 5.15625 1.25 Z M 5.15625 1.25 "/>
<path style=" stroke:none;fill-rule:nonzero;fill:rgb(36.078432%,64.705884%,49.803922%);fill-opacity:1;" d="M 35.035156 1.074219 C 37.441406 1.074219 39.847656 1.074219 42.324219 1.074219 C 42.527344 1.890625 42.441406 2.085938 42.136719 2.84375 C 42.054688 3.054688 41.972656 3.261719 41.886719 3.476562 C 41.796875 3.699219 41.707031 3.921875 41.613281 4.144531 C 41.523438 4.371094 41.433594 4.597656 41.339844 4.824219 C 41.160156 5.273438 40.980469 5.722656 40.796875 6.167969 C 40.582031 6.707031 40.371094 7.246094 40.164062 7.785156 C 40.058594 8.058594 39.953125 8.328125 39.847656 8.601562 C 39.800781 8.722656 39.753906 8.847656 39.707031 8.972656 C 39.386719 9.777344 39.386719 9.777344 38.976562 10.035156 C 38.589844 10.1875 38.269531 10.257812 37.855469 10.300781 C 37.714844 10.320312 37.570312 10.335938 37.425781 10.355469 C 37.273438 10.375 37.125 10.390625 36.96875 10.410156 C 35.285156 10.636719 33.753906 11.085938 32.164062 11.675781 C 31.703125 11.84375 31.234375 12 30.765625 12.152344 C 30.890625 11.371094 31.15625 10.671875 31.449219 9.941406 C 31.5 9.816406 31.550781 9.6875 31.601562 9.558594 C 31.769531 9.144531 31.933594 8.734375 32.101562 8.320312 C 32.214844 8.039062 32.328125 7.757812 32.4375 7.472656 C 33.296875 5.335938 34.160156 3.203125 35.035156 1.074219 Z M 35.035156 1.074219 "/>
<path style=" stroke:none;fill-rule:nonzero;fill:rgb(36.862746%,63.529414%,49.019608%);fill-opacity:1;" d="M 81.574219 18.21875 C 82.160156 18.585938 82.160156 18.585938 82.339844 18.765625 C 82.398438 18.53125 82.457031 18.292969 82.515625 18.050781 C 83.222656 18.050781 83.925781 18.050781 84.652344 18.050781 C 84.664062 19.273438 84.675781 20.5 84.679688 21.722656 C 84.683594 22.140625 84.6875 22.554688 84.691406 22.972656 C 84.699219 23.570312 84.699219 24.171875 84.703125 24.769531 C 84.707031 24.957031 84.707031 25.140625 84.710938 25.332031 C 84.710938 26.8125 84.40625 27.914062 83.390625 29.027344 C 82.25 29.976562 80.800781 30.140625 79.367188 30.097656 C 78.113281 29.945312 76.921875 29.585938 75.9375 28.773438 C 76.160156 28.15625 76.414062 27.675781 76.828125 27.164062 C 76.949219 27.21875 77.066406 27.269531 77.191406 27.324219 C 78.5 27.824219 79.6875 28.058594 81.09375 27.878906 C 81.71875 27.582031 81.929688 27.460938 82.21875 26.820312 C 82.363281 26.25 82.363281 26.25 82.339844 25.558594 C 82.152344 25.671875 81.964844 25.785156 81.773438 25.902344 C 80.851562 26.429688 80.019531 26.539062 78.960938 26.449219 C 77.730469 26.089844 76.609375 25.609375 75.894531 24.496094 C 75.273438 23.289062 75.203125 22.097656 75.519531 20.785156 C 75.988281 19.429688 76.726562 18.785156 77.925781 18.074219 C 79.152344 17.710938 80.402344 17.640625 81.574219 18.21875 Z M 78.070312 20.554688 C 77.578125 21.335938 77.578125 22.160156 77.714844 23.054688 C 78.011719 23.660156 78.441406 24.023438 79.003906 24.382812 C 79.988281 24.585938 80.816406 24.449219 81.707031 23.992188 C 82.210938 23.546875 82.386719 23.355469 82.515625 22.699219 C 82.542969 21.839844 82.460938 21.148438 81.917969 20.464844 C 81.226562 19.804688 80.644531 19.777344 79.734375 19.789062 C 79.035156 19.871094 78.636719 20.132812 78.070312 20.554688 Z M 78.070312 20.554688 "/>
<path style=" stroke:none;fill-rule:nonzero;fill:rgb(36.078432%,63.137257%,48.627451%);fill-opacity:1;" d="M 54.242188 15.371094 C 55.003906 15.371094 55.765625 15.371094 56.550781 15.371094 C 57.8125 18.019531 58.953125 20.71875 60.109375 23.414062 C 61.28125 20.757812 62.457031 18.105469 63.667969 15.371094 C 64.429688 15.371094 65.191406 15.371094 65.976562 15.371094 C 65.59375 16.605469 65.113281 17.761719 64.566406 18.933594 C 64.0625 20.027344 63.578125 21.117188 63.140625 22.238281 C 62.796875 23.09375 62.414062 23.925781 62.03125 24.765625 C 61.953125 24.941406 61.871094 25.121094 61.789062 25.304688 C 61.675781 25.558594 61.675781 25.558594 61.558594 25.816406 C 61.488281 25.96875 61.417969 26.121094 61.347656 26.277344 C 61.175781 26.628906 61.175781 26.628906 61 26.808594 C 60.675781 26.824219 60.355469 26.832031 60.03125 26.832031 C 59.855469 26.832031 59.679688 26.832031 59.5 26.832031 C 59.042969 26.808594 59.042969 26.808594 58.6875 26.628906 C 58.535156 26.316406 58.398438 25.996094 58.265625 25.671875 C 58.183594 25.46875 58.101562 25.261719 58.015625 25.050781 C 57.921875 24.824219 57.832031 24.597656 57.742188 24.375 C 57.601562 24.023438 57.457031 23.671875 57.316406 23.324219 C 57.21875 23.078125 57.117188 22.835938 57.019531 22.589844 C 56.652344 21.6875 56.277344 20.785156 55.898438 19.886719 C 55.84375 19.761719 55.789062 19.636719 55.734375 19.503906 C 55.527344 19.011719 55.316406 18.515625 55.105469 18.019531 C 54.960938 17.675781 54.816406 17.332031 54.671875 16.988281 C 54.546875 16.695312 54.546875 16.695312 54.417969 16.394531 C 54.242188 15.90625 54.242188 15.90625 54.242188 15.371094 Z M 54.242188 15.371094 "/>
<path style=" stroke:none;fill-rule:nonzero;fill:rgb(36.862746%,63.921571%,49.019608%);fill-opacity:1;" d="M 93.085938 18.21875 C 94.183594 18.847656 94.699219 19.785156 95.210938 20.910156 C 95.359375 21.628906 95.351562 22.324219 95.320312 23.054688 C 94.910156 23.054688 94.5 23.054688 94.078125 23.054688 C 94.164062 23.410156 94.164062 23.410156 94.253906 23.769531 C 94.136719 23.769531 94.019531 23.769531 93.898438 23.769531 C 93.980469 23.898438 94.058594 24.027344 94.144531 24.160156 C 94.410156 24.621094 94.625 25.050781 94.789062 25.558594 C 94.566406 26.007812 94.375 26.066406 93.933594 26.285156 C 93.808594 26.34375 93.6875 26.40625 93.5625 26.46875 C 92.273438 27.023438 90.621094 27.039062 89.28125 26.660156 C 88.011719 26.074219 87.078125 25.179688 86.53125 23.882812 C 86.242188 22.03125 86.5 20.824219 87.519531 19.257812 C 89.070312 17.765625 91.085938 17.351562 93.085938 18.21875 Z M 89.273438 20.195312 C 88.878906 20.722656 88.742188 20.960938 88.742188 21.625 C 89.351562 21.628906 89.964844 21.632812 90.574219 21.636719 C 90.835938 21.640625 90.835938 21.640625 91.101562 21.640625 C 91.269531 21.640625 91.433594 21.640625 91.605469 21.644531 C 91.761719 21.644531 91.914062 21.644531 92.074219 21.644531 C 92.503906 21.640625 92.503906 21.640625 93.007812 21.445312 C 92.925781 20.675781 92.714844 20.328125 92.121094 19.839844 C 91.0625 19.484375 90.207031 19.578125 89.273438 20.195312 Z M 88.742188 23.054688 C 88.851562 23.804688 89.023438 24.195312 89.640625 24.671875 C 90.3125 25 91.039062 24.957031 91.765625 24.84375 C 92.164062 24.707031 92.164062 24.707031 92.476562 24.484375 C 92.621094 24.027344 92.621094 24.027344 92.652344 23.589844 C 92.535156 23.589844 92.417969 23.589844 92.296875 23.589844 C 92.296875 23.472656 92.296875 23.355469 92.296875 23.234375 C 91.890625 23.027344 91.660156 23.035156 91.207031 23.039062 C 91.0625 23.039062 90.921875 23.039062 90.773438 23.039062 C 90.625 23.042969 90.472656 23.042969 90.320312 23.042969 C 90.09375 23.046875 90.09375 23.046875 89.863281 23.046875 C 89.488281 23.046875 89.113281 23.050781 88.742188 23.054688 Z M 88.742188 23.054688 "/>
<path style=" stroke:none;fill-rule:nonzero;fill:rgb(36.470589%,62.7451%,48.627451%);fill-opacity:1;" d="M 72.914062 18.765625 C 73.632812 19.398438 74.054688 20.179688 74.335938 21.089844 C 74.351562 21.429688 74.355469 21.773438 74.351562 22.113281 C 74.347656 22.292969 74.347656 22.46875 74.34375 22.648438 C 74.339844 22.785156 74.339844 22.917969 74.335938 23.054688 C 73.664062 23.085938 72.996094 23.117188 72.324219 23.144531 C 72.136719 23.152344 71.949219 23.160156 71.757812 23.171875 C 70.542969 23.222656 69.328125 23.246094 68.113281 23.234375 C 68.199219 23.761719 68.199219 23.761719 68.46875 24.304688 C 69.417969 24.898438 70.054688 24.910156 71.136719 24.664062 C 71.71875 24.371094 72.222656 23.996094 72.734375 23.589844 C 72.972656 23.710938 73.207031 23.828125 73.449219 23.949219 C 73.449219 24.125 73.449219 24.304688 73.449219 24.484375 C 73.558594 24.84375 73.675781 25.203125 73.804688 25.558594 C 72.800781 26.566406 71.695312 26.945312 70.28125 27.011719 C 68.929688 26.945312 67.722656 26.53125 66.710938 25.609375 C 65.84375 24.644531 65.464844 23.648438 65.445312 22.339844 C 65.609375 20.628906 66.273438 19.585938 67.578125 18.496094 C 69.171875 17.304688 71.375 17.6875 72.914062 18.765625 Z M 68.46875 20.195312 C 67.929688 20.839844 67.929688 20.839844 67.757812 21.625 C 69.222656 21.625 70.691406 21.625 72.203125 21.625 C 72.128906 20.601562 72.128906 20.601562 71.667969 20.140625 C 70.585938 19.527344 69.503906 19.445312 68.46875 20.195312 Z M 68.46875 20.195312 "/>
<path style=" stroke:none;fill-rule:nonzero;fill:rgb(60.784316%,61.176473%,61.56863%);fill-opacity:1;" d="M 111.933594 18.363281 C 113.042969 19.246094 113.292969 20.09375 113.460938 21.445312 C 113.5 22.347656 113.496094 23.246094 113.484375 24.148438 C 113.480469 24.390625 113.480469 24.632812 113.476562 24.875 C 113.472656 25.460938 113.46875 26.042969 113.460938 26.628906 C 112.757812 26.628906 112.050781 26.628906 111.328125 26.628906 C 111.269531 26.453125 111.210938 26.277344 111.148438 26.09375 C 110.960938 26.210938 110.773438 26.328125 110.582031 26.449219 C 109.460938 27.011719 108.164062 27.027344 106.96875 26.679688 C 106.222656 26.339844 105.765625 25.984375 105.457031 25.199219 C 105.269531 24.472656 105.257812 24.03125 105.445312 23.300781 C 105.953125 22.472656 106.636719 21.984375 107.566406 21.707031 C 107.960938 21.621094 108.3125 21.605469 108.71875 21.609375 C 108.929688 21.609375 108.929688 21.609375 109.148438 21.609375 C 109.296875 21.609375 109.441406 21.613281 109.59375 21.613281 C 109.742188 21.613281 109.890625 21.617188 110.046875 21.617188 C 110.414062 21.617188 110.78125 21.621094 111.148438 21.625 C 110.953125 20.660156 110.953125 20.660156 110.261719 20.015625 C 109.042969 19.890625 107.933594 19.867188 106.882812 20.554688 C 106.761719 20.554688 106.644531 20.554688 106.523438 20.554688 C 105.984375 19.621094 105.984375 19.621094 106.011719 19.023438 C 106.167969 18.585938 106.167969 18.585938 106.519531 18.34375 C 108.195312 17.738281 110.339844 17.359375 111.933594 18.363281 Z M 107.769531 23.414062 C 107.625 24.050781 107.625 24.050781 107.59375 24.664062 C 108.28125 25.269531 108.765625 25.277344 109.652344 25.253906 C 110.28125 25.175781 110.707031 24.929688 111.148438 24.484375 C 111.160156 24.242188 111.164062 24 111.160156 23.757812 C 111.15625 23.527344 111.152344 23.292969 111.148438 23.054688 C 110.71875 23.046875 110.289062 23.039062 109.859375 23.03125 C 109.679688 23.027344 109.679688 23.027344 109.492188 23.023438 C 108.570312 23.007812 108.570312 23.007812 107.769531 23.414062 Z M 107.769531 23.414062 "/>
<path style=" stroke:none;fill-rule:nonzero;fill:rgb(61.176473%,61.56863%,62.352943%);fill-opacity:1;" d="M 103.351562 18.359375 C 103.898438 18.738281 104.214844 19.089844 104.570312 19.660156 C 104.589844 20.050781 104.589844 20.050781 104.390625 20.375 C 103.980469 20.699219 103.980469 20.699219 103.503906 20.910156 C 103.089844 20.855469 103.089844 20.855469 102.789062 20.730469 C 102.789062 20.613281 102.789062 20.496094 102.789062 20.375 C 101.9375 19.917969 101.066406 19.917969 100.125 20.015625 C 99.558594 20.246094 99.308594 20.46875 98.910156 20.921875 C 98.515625 21.90625 98.570312 22.867188 98.921875 23.859375 C 99.261719 24.34375 99.40625 24.457031 99.945312 24.664062 C 101.222656 24.832031 101.222656 24.832031 102.417969 24.464844 C 102.6875 24.199219 102.6875 24.199219 102.96875 23.769531 C 103.664062 23.976562 104.191406 24.191406 104.746094 24.664062 C 104.367188 25.597656 103.761719 26.136719 102.878906 26.597656 C 101.574219 27.03125 99.9375 27.042969 98.671875 26.46875 C 97.472656 25.742188 96.660156 24.894531 96.265625 23.523438 C 96.09375 22.085938 96.195312 20.859375 97 19.621094 C 98.535156 17.691406 101.148438 17.191406 103.351562 18.359375 Z M 103.351562 18.359375 "/>
<path style=" stroke:none;fill-rule:nonzero;fill:rgb(61.56863%,61.960787%,62.352943%);fill-opacity:1;" d="M 125.019531 15.90625 C 125.078125 16.554688 125.136719 17.203125 125.199219 17.871094 C 125.960938 17.929688 126.722656 17.992188 127.511719 18.050781 C 127.527344 19.289062 127.527344 19.289062 127.511719 19.660156 C 127.332031 19.839844 127.332031 19.839844 126.808594 19.855469 C 126.597656 19.855469 126.382812 19.851562 126.164062 19.847656 C 125.847656 19.847656 125.847656 19.847656 125.519531 19.84375 C 125.355469 19.84375 125.191406 19.839844 125.019531 19.839844 C 125.046875 20.542969 125.070312 21.246094 125.097656 21.949219 C 125.105469 22.148438 125.113281 22.351562 125.121094 22.554688 C 125.128906 22.746094 125.132812 22.9375 125.140625 23.136719 C 125.148438 23.3125 125.15625 23.492188 125.160156 23.671875 C 125.183594 24.148438 125.183594 24.148438 125.375 24.664062 C 126.363281 24.847656 126.363281 24.847656 127.332031 24.664062 C 127.867188 25.847656 127.867188 25.847656 127.867188 26.449219 C 126.699219 26.957031 125.425781 27.011719 124.230469 26.597656 C 123.5 26.078125 123.046875 25.554688 122.886719 24.664062 C 122.871094 24.289062 122.867188 23.914062 122.867188 23.539062 C 122.871094 23.324219 122.871094 23.109375 122.871094 22.886719 C 122.871094 22.660156 122.875 22.4375 122.875 22.207031 C 122.875 21.980469 122.875 21.753906 122.878906 21.519531 C 122.878906 20.957031 122.882812 20.398438 122.886719 19.839844 C 122.417969 19.839844 121.949219 19.839844 121.464844 19.839844 C 121.464844 19.25 121.464844 18.660156 121.464844 18.050781 C 121.933594 18.050781 122.402344 18.050781 122.886719 18.050781 C 122.886719 17.34375 122.886719 16.636719 122.886719 15.90625 C 123.644531 15.652344 124.230469 15.800781 125.019531 15.90625 Z M 125.019531 15.90625 "/>
<path style=" stroke:none;fill-rule:nonzero;fill:rgb(60.392159%,60.784316%,61.176473%);fill-opacity:1;" d="M 117.140625 17.9375 C 117.285156 17.960938 117.425781 17.980469 117.574219 18 C 117.738281 18.023438 117.738281 18.023438 117.90625 18.050781 C 117.964844 18.347656 118.023438 18.640625 118.085938 18.945312 C 118.214844 18.835938 118.339844 18.722656 118.472656 18.609375 C 119.363281 17.933594 120 17.828125 121.109375 17.871094 C 121.109375 18.519531 121.109375 19.167969 121.109375 19.839844 C 120.832031 19.878906 120.558594 19.917969 120.273438 19.960938 C 119.414062 20.136719 118.96875 20.355469 118.441406 21.089844 C 118.144531 21.832031 118.042969 22.445312 118.050781 23.242188 C 118.050781 23.441406 118.050781 23.640625 118.054688 23.84375 C 118.054688 24.046875 118.058594 24.253906 118.0625 24.460938 C 118.0625 24.671875 118.066406 24.878906 118.066406 25.09375 C 118.070312 25.605469 118.078125 26.117188 118.085938 26.628906 C 117.320312 26.628906 116.558594 26.628906 115.773438 26.628906 C 115.757812 25.441406 115.75 24.25 115.742188 23.0625 C 115.742188 22.65625 115.738281 22.25 115.734375 21.84375 C 115.726562 21.265625 115.722656 20.683594 115.722656 20.101562 C 115.71875 19.921875 115.714844 19.738281 115.710938 19.550781 C 115.710938 19.382812 115.710938 19.214844 115.710938 19.042969 C 115.710938 18.894531 115.710938 18.746094 115.707031 18.589844 C 115.730469 18.472656 115.75 18.351562 115.773438 18.230469 C 116.371094 17.832031 116.46875 17.839844 117.140625 17.9375 Z M 117.140625 17.9375 "/>
<path style=" stroke:none;fill-rule:nonzero;fill:rgb(34.117648%,63.137257%,47.843137%);fill-opacity:1;" d="M 76.828125 27.164062 C 77.007812 27.242188 77.007812 27.242188 77.191406 27.324219 C 77.773438 27.546875 78.359375 27.714844 78.960938 27.878906 C 78.960938 28.234375 78.960938 28.589844 78.960938 28.953125 C 79.078125 28.953125 79.195312 28.953125 79.316406 28.953125 C 79.257812 29.1875 79.199219 29.425781 79.136719 29.667969 C 77.914062 29.769531 77.175781 29.574219 76.113281 28.953125 C 76.113281 28.109375 76.34375 27.832031 76.828125 27.164062 Z M 76.828125 27.164062 "/>
<path style=" stroke:none;fill-rule:nonzero;fill:rgb(33.725491%,67.058825%,52.156866%);fill-opacity:1;" d="M 68.113281 21.984375 C 69.34375 21.984375 70.578125 21.984375 71.847656 21.984375 C 71.964844 22.21875 72.082031 22.453125 72.203125 22.699219 C 71.851562 22.699219 71.5 22.699219 71.136719 22.699219 C 71.136719 22.816406 71.136719 22.933594 71.136719 23.054688 C 71.3125 23.113281 71.488281 23.171875 71.667969 23.234375 C 70.320312 23.234375 68.96875 23.234375 67.578125 23.234375 C 67.578125 23.117188 67.578125 23 67.578125 22.875 C 67.753906 22.757812 67.929688 22.640625 68.113281 22.519531 C 68.113281 22.34375 68.113281 22.164062 68.113281 21.984375 Z M 72.023438 21.984375 C 72.378906 22.160156 72.378906 22.160156 72.378906 22.160156 Z M 72.023438 21.984375 "/>
<path style=" stroke:none;fill-rule:nonzero;fill:rgb(35.294119%,59.607846%,46.27451%);fill-opacity:1;" d="M 82.695312 18.230469 C 83.339844 18.230469 83.984375 18.230469 84.652344 18.230469 C 84.660156 19.433594 84.667969 20.632812 84.671875 21.835938 C 84.671875 22.246094 84.675781 22.652344 84.679688 23.0625 C 84.683594 23.652344 84.683594 24.238281 84.6875 24.828125 C 84.6875 25.007812 84.691406 25.191406 84.691406 25.378906 C 84.691406 26.285156 84.65625 27.03125 84.296875 27.878906 C 84.121094 27.820312 83.945312 27.761719 83.761719 27.703125 C 83.847656 27.449219 83.847656 27.449219 83.933594 27.195312 C 84.179688 26.324219 84.179688 25.46875 84.191406 24.570312 C 84.195312 24.394531 84.199219 24.214844 84.203125 24.035156 C 84.210938 23.472656 84.21875 22.914062 84.230469 22.351562 C 84.234375 21.96875 84.242188 21.589844 84.25 21.207031 C 84.265625 20.273438 84.28125 19.339844 84.296875 18.410156 C 83.503906 18.496094 83.503906 18.496094 82.695312 18.585938 C 82.695312 18.46875 82.695312 18.351562 82.695312 18.230469 Z M 82.695312 18.230469 "/>
<path style=" stroke:none;fill-rule:nonzero;fill:rgb(36.862746%,58.431375%,47.058824%);fill-opacity:1;" d="M 38.234375 11.972656 C 38.824219 11.96875 39.414062 11.964844 40.003906 11.964844 C 40.171875 11.960938 40.339844 11.960938 40.511719 11.957031 C 40.753906 11.957031 40.753906 11.957031 40.996094 11.957031 C 41.21875 11.957031 41.21875 11.957031 41.445312 11.953125 C 41.792969 11.972656 41.792969 11.972656 41.96875 12.152344 C 42.234375 15.78125 41.929688 19.328125 40.546875 22.699219 C 40.34375 22.082031 40.402344 21.945312 40.613281 21.359375 C 40.664062 21.21875 40.710938 21.082031 40.761719 20.9375 C 40.808594 20.8125 40.855469 20.683594 40.902344 20.554688 C 41.097656 19.972656 41.132812 19.476562 41.167969 18.867188 C 41.226562 17.996094 41.339844 17.265625 41.613281 16.441406 C 41.628906 16.140625 41.632812 15.835938 41.632812 15.53125 C 41.628906 15.265625 41.628906 15.265625 41.628906 14.996094 C 41.628906 14.816406 41.625 14.632812 41.625 14.441406 C 41.625 14.257812 41.625 14.074219 41.621094 13.882812 C 41.621094 13.425781 41.617188 12.96875 41.613281 12.511719 C 40.5 12.394531 39.382812 12.273438 38.234375 12.152344 C 38.234375 12.09375 38.234375 12.035156 38.234375 11.972656 Z M 38.234375 11.972656 "/>
<path style=" stroke:none;fill-rule:nonzero;fill:rgb(32.156864%,61.960787%,45.09804%);fill-opacity:1;" d="M 19.917969 21.269531 C 20.453125 21.269531 20.453125 21.269531 20.722656 21.464844 C 21.363281 22.289062 21.847656 23.515625 21.890625 24.558594 C 21.839844 24.898438 21.839844 24.898438 21.695312 25.378906 C 21.578125 25.378906 21.460938 25.378906 21.339844 25.378906 C 21.101562 24.894531 20.863281 24.410156 20.628906 23.925781 C 20.5625 23.789062 20.492188 23.65625 20.421875 23.515625 C 20.046875 22.734375 19.828125 22.15625 19.917969 21.269531 Z M 19.917969 21.269531 "/>
<path style=" stroke:none;fill-rule:nonzero;fill:rgb(34.117648%,62.352943%,47.450981%);fill-opacity:1;" d="M 28.453125 16.085938 C 28.570312 16.203125 28.6875 16.320312 28.808594 16.441406 C 28.753906 16.539062 28.699219 16.632812 28.644531 16.734375 C 28.421875 17.230469 28.347656 17.695312 28.277344 18.230469 C 28.023438 18.25 28.023438 18.25 27.765625 18.273438 C 27.191406 18.347656 27.191406 18.347656 26.964844 18.777344 C 26.929688 18.890625 26.890625 19.003906 26.855469 19.125 C 26.617188 19.0625 26.382812 19.003906 26.140625 18.945312 C 26.394531 18.105469 26.882812 17.601562 27.5 17.011719 C 27.589844 16.921875 27.683594 16.832031 27.777344 16.742188 C 28 16.519531 28.226562 16.300781 28.453125 16.085938 Z M 28.453125 16.085938 "/>
<path style=" stroke:none;fill-rule:nonzero;fill:rgb(35.294119%,64.705884%,50.588238%);fill-opacity:1;" d="M 69.15625 24.976562 C 69.710938 25.019531 69.710938 25.019531 70.035156 25.222656 C 70.320312 25.675781 70.367188 26.101562 70.425781 26.628906 C 70.601562 26.6875 70.777344 26.746094 70.957031 26.808594 C 70.722656 26.867188 70.488281 26.925781 70.246094 26.988281 C 70.246094 26.871094 70.246094 26.75 70.246094 26.628906 C 70.109375 26.640625 69.976562 26.652344 69.835938 26.664062 C 69.273438 26.625 69.183594 26.503906 68.824219 26.09375 C 68.707031 26.09375 68.589844 26.09375 68.46875 26.09375 C 68.460938 25.796875 68.460938 25.496094 68.46875 25.199219 C 68.644531 25.019531 68.644531 25.019531 69.15625 24.976562 Z M 69.15625 24.976562 "/>
<path style=" stroke:none;fill-rule:nonzero;fill:rgb(39.215687%,57.647061%,48.235294%);fill-opacity:1;" d="M 5.15625 1.25 C 6.238281 1.238281 7.324219 1.226562 8.40625 1.222656 C 8.773438 1.21875 9.140625 1.214844 9.511719 1.210938 C 10.039062 1.203125 10.566406 1.199219 11.097656 1.199219 C 11.261719 1.195312 11.425781 1.191406 11.597656 1.191406 C 11.75 1.191406 11.90625 1.191406 12.0625 1.191406 C 12.195312 1.1875 12.332031 1.1875 12.472656 1.1875 C 12.582031 1.207031 12.691406 1.230469 12.804688 1.25 C 13.160156 1.789062 13.160156 1.789062 13.160156 2.324219 C 13.042969 2.324219 12.925781 2.324219 12.804688 2.324219 C 12.804688 2.085938 12.804688 1.851562 12.804688 1.609375 C 9.28125 1.519531 9.28125 1.519531 5.691406 1.429688 C 5.808594 1.84375 5.925781 2.253906 6.046875 2.679688 C 5.929688 2.796875 5.8125 2.917969 5.691406 3.039062 C 5.515625 2.449219 5.339844 1.859375 5.15625 1.25 Z M 5.15625 1.25 "/>
<path style=" stroke:none;fill-rule:nonzero;fill:rgb(38.039216%,59.607846%,49.019608%);fill-opacity:1;" d="M 34.144531 29.3125 C 34.496094 29.3125 34.847656 29.3125 35.210938 29.3125 C 34.136719 30.492188 32.675781 30.976562 31.121094 31.160156 C 30.730469 31.246094 30.730469 31.246094 30.539062 31.644531 C 30.496094 31.757812 30.453125 31.875 30.410156 31.992188 C 30.464844 31.566406 30.464844 31.566406 30.589844 31.097656 C 31.09375 30.761719 31.335938 30.671875 31.910156 30.5625 C 32.347656 30.476562 32.695312 30.394531 33.09375 30.191406 C 33.433594 30.027344 33.433594 30.027344 33.96875 30.027344 C 34.027344 29.789062 34.085938 29.554688 34.144531 29.3125 Z M 34.144531 29.3125 "/>
<path style=" stroke:none;fill-rule:nonzero;fill:rgb(36.078432%,65.882355%,53.333336%);fill-opacity:1;" d="M 71.492188 24.484375 C 71.550781 24.601562 71.609375 24.722656 71.667969 24.84375 C 71.84375 24.84375 72.019531 24.84375 72.203125 24.84375 C 72.222656 24.957031 72.238281 25.070312 72.257812 25.1875 C 72.296875 25.308594 72.339844 25.433594 72.378906 25.558594 C 72.554688 25.617188 72.730469 25.675781 72.914062 25.734375 C 72.855469 25.972656 72.796875 26.207031 72.734375 26.449219 C 72.023438 26.449219 72.023438 26.449219 71.722656 26.261719 C 71.382812 25.75 71.359375 25.269531 71.3125 24.664062 C 71.371094 24.605469 71.429688 24.546875 71.492188 24.484375 Z M 71.492188 24.484375 "/>
<path style=" stroke:none;fill-rule:nonzero;fill:rgb(36.862746%,57.647061%,48.235294%);fill-opacity:1;" d="M 27.03125 39.855469 C 27.089844 39.972656 27.148438 40.089844 27.210938 40.210938 C 27.09375 40.507812 26.972656 40.800781 26.855469 41.105469 C 25.269531 41.105469 23.683594 41.105469 22.050781 41.105469 C 22.050781 40.988281 22.050781 40.871094 22.050781 40.75 C 22.230469 40.757812 22.230469 40.757812 22.414062 40.761719 C 22.957031 40.78125 23.5 40.792969 24.042969 40.804688 C 24.230469 40.8125 24.417969 40.820312 24.609375 40.828125 C 25.582031 40.871094 25.582031 40.871094 26.472656 40.546875 C 26.75 40.28125 26.75 40.28125 27.03125 39.855469 Z M 27.03125 39.855469 "/>
<path style=" stroke:none;fill-rule:nonzero;fill:rgb(33.333334%,61.176473%,47.058824%);fill-opacity:1;" d="M 21.164062 22.875 C 21.578125 23.292969 21.710938 23.558594 21.875 24.128906 C 21.808594 24.808594 21.808594 24.808594 21.695312 25.378906 C 21.578125 25.378906 21.460938 25.378906 21.339844 25.378906 C 21.164062 24.847656 20.988281 24.316406 20.808594 23.769531 C 20.925781 23.710938 21.042969 23.652344 21.164062 23.589844 C 21.164062 23.355469 21.164062 23.121094 21.164062 22.875 Z M 21.164062 22.875 "/>
<path style=" stroke:none;fill-rule:nonzero;fill:rgb(38.431373%,58.431375%,47.450981%);fill-opacity:1;" d="M 13.515625 16.265625 C 14.59375 16.472656 15.496094 17.09375 16.410156 17.679688 C 16.71875 17.878906 16.71875 17.878906 17.074219 18.050781 C 17.015625 18.285156 16.957031 18.523438 16.894531 18.765625 C 16.753906 18.65625 16.617188 18.550781 16.472656 18.4375 C 15.519531 17.707031 14.582031 17.003906 13.515625 16.441406 C 13.515625 16.382812 13.515625 16.324219 13.515625 16.265625 Z M 13.515625 16.265625 "/>
<path style=" stroke:none;fill-rule:nonzero;fill:rgb(34.509805%,57.647061%,45.882353%);fill-opacity:1;" d="M 31.300781 10.367188 C 31.65625 10.542969 31.65625 10.542969 32.011719 11.082031 C 32.011719 11.449219 32.011719 11.449219 31.832031 11.796875 C 31.289062 12.019531 31.289062 12.019531 30.765625 12.152344 C 30.875 11.515625 31.046875 10.957031 31.300781 10.367188 Z M 31.300781 10.367188 "/>
<path style=" stroke:none;fill-rule:nonzero;fill:rgb(31.37255%,63.137257%,43.137255%);fill-opacity:1;" d="M 33.433594 20.375 C 33.609375 20.433594 33.785156 20.492188 33.96875 20.554688 C 33.5 21.300781 33.027344 21.925781 32.367188 22.519531 C 32.25 22.519531 32.132812 22.519531 32.011719 22.519531 C 32.113281 21.863281 32.382812 21.527344 32.824219 21.042969 C 32.9375 20.917969 33.050781 20.792969 33.167969 20.660156 C 33.300781 20.519531 33.300781 20.519531 33.433594 20.375 Z M 33.433594 20.375 "/>
<path style=" stroke:none;fill-rule:nonzero;fill:rgb(36.470589%,58.823532%,47.450981%);fill-opacity:1;" d="M 7.113281 6.253906 C 7.222656 6.34375 7.332031 6.433594 7.445312 6.523438 C 7.796875 6.824219 7.796875 6.824219 8.179688 6.792969 C 8.179688 7.5 8.179688 8.207031 8.179688 8.9375 C 7.757812 8.511719 7.648438 8.160156 7.445312 7.597656 C 7.382812 7.421875 7.320312 7.246094 7.257812 7.066406 C 7.113281 6.613281 7.113281 6.613281 7.113281 6.253906 Z M 7.113281 6.253906 "/>
<path style=" stroke:none;fill-rule:nonzero;fill:rgb(40.000001%,61.176473%,49.411765%);fill-opacity:1;" d="M 76.113281 20.015625 C 76.230469 20.074219 76.351562 20.136719 76.46875 20.195312 C 76.414062 20.621094 76.414062 20.621094 76.292969 21.089844 C 76.117188 21.207031 75.941406 21.324219 75.757812 21.445312 C 75.65625 21.878906 75.65625 21.878906 75.636719 22.363281 C 75.625 22.527344 75.613281 22.6875 75.601562 22.855469 C 75.589844 23.042969 75.589844 23.042969 75.582031 23.234375 C 75.523438 23.234375 75.464844 23.234375 75.402344 23.234375 C 75.335938 21.09375 75.335938 21.09375 75.757812 20.195312 C 75.875 20.136719 75.992188 20.078125 76.113281 20.015625 Z M 76.113281 20.015625 "/>
<path style=" stroke:none;fill-rule:nonzero;fill:rgb(40.000001%,60.000002%,49.803922%);fill-opacity:1;" d="M 82.339844 26.273438 C 82.398438 26.273438 82.457031 26.273438 82.515625 26.273438 C 82.574219 27.101562 82.523438 27.59375 81.984375 28.238281 C 81.386719 28.324219 81.386719 28.324219 80.707031 28.292969 C 80.480469 28.285156 80.253906 28.277344 80.019531 28.269531 C 79.847656 28.257812 79.671875 28.25 79.492188 28.238281 C 79.492188 28.179688 79.492188 28.121094 79.492188 28.058594 C 79.597656 28.054688 79.703125 28.046875 79.8125 28.039062 C 80.988281 27.945312 80.988281 27.945312 81.984375 27.34375 C 82.226562 26.796875 82.226562 26.796875 82.339844 26.273438 Z M 82.339844 26.273438 "/>
<path style=" stroke:none;fill-rule:nonzero;fill:rgb(38.431373%,59.607846%,47.843137%);fill-opacity:1;" d="M 86.429688 21.625 C 86.488281 21.625 86.546875 21.625 86.605469 21.625 C 86.726562 22.511719 86.84375 23.394531 86.964844 24.304688 C 87.082031 24.304688 87.199219 24.304688 87.320312 24.304688 C 87.378906 24.484375 87.4375 24.660156 87.496094 24.84375 C 87.671875 24.902344 87.847656 24.960938 88.03125 25.019531 C 87.972656 25.199219 87.914062 25.375 87.851562 25.558594 C 87.074219 24.878906 86.65625 24.253906 86.429688 23.234375 C 86.390625 22.695312 86.394531 22.164062 86.429688 21.625 Z M 86.429688 21.625 "/>
<path style=" stroke:none;fill-rule:nonzero;fill:rgb(34.509805%,58.823532%,47.843137%);fill-opacity:1;" d="M 30.234375 31.992188 C 30.476562 32.722656 30.191406 33.148438 29.886719 33.8125 C 29.835938 33.929688 29.785156 34.046875 29.730469 34.167969 C 29.605469 34.453125 29.472656 34.742188 29.34375 35.03125 C 29.285156 35.03125 29.226562 35.03125 29.164062 35.03125 C 29.304688 33.839844 29.601562 33.003906 30.234375 31.992188 Z M 30.234375 31.992188 "/>
<path style=" stroke:none;fill-rule:nonzero;fill:rgb(36.078432%,59.215689%,48.627451%);fill-opacity:1;" d="M 19.917969 32.347656 C 19.976562 32.347656 20.035156 32.347656 20.097656 32.347656 C 20.074219 32.601562 20.050781 32.855469 20.027344 33.109375 C 20.015625 33.25 20.003906 33.390625 19.992188 33.535156 C 19.914062 33.972656 19.777344 34.289062 19.5625 34.671875 C 19.445312 34.613281 19.328125 34.554688 19.207031 34.492188 C 19.078125 34.078125 18.957031 33.664062 18.851562 33.242188 C 19.085938 33.300781 19.320312 33.359375 19.5625 33.421875 C 19.679688 33.066406 19.796875 32.714844 19.917969 32.347656 Z M 19.917969 32.347656 "/>
<path style=" stroke:none;fill-rule:nonzero;fill:rgb(39.607844%,60.000002%,49.411765%);fill-opacity:1;" d="M 92.652344 18.230469 C 93.441406 18.476562 93.898438 18.851562 94.433594 19.480469 C 94.433594 19.65625 94.433594 19.835938 94.433594 20.015625 C 94.355469 19.933594 94.277344 19.847656 94.199219 19.761719 C 93.894531 19.4375 93.894531 19.4375 93.367188 19.300781 C 93.367188 19.183594 93.367188 19.066406 93.367188 18.945312 C 93.128906 18.886719 92.894531 18.828125 92.652344 18.765625 C 92.652344 18.589844 92.652344 18.410156 92.652344 18.230469 Z M 92.652344 18.230469 "/>
<path style=" stroke:none;fill-rule:nonzero;fill:rgb(33.333334%,60.392159%,45.882353%);fill-opacity:1;" d="M 14.050781 25.734375 C 14.226562 25.855469 14.402344 25.972656 14.582031 26.09375 C 14.582031 26.210938 14.582031 26.328125 14.582031 26.449219 C 14.699219 26.511719 14.816406 26.570312 14.9375 26.628906 C 15.050781 27.175781 15.050781 27.175781 15.117188 27.703125 C 14.914062 27.535156 14.714844 27.367188 14.515625 27.199219 C 14.40625 27.105469 14.292969 27.011719 14.179688 26.917969 C 13.871094 26.628906 13.871094 26.628906 13.515625 26.09375 C 13.691406 26.09375 13.867188 26.09375 14.050781 26.09375 C 14.050781 25.976562 14.050781 25.859375 14.050781 25.734375 Z M 14.050781 25.734375 "/>
<path style=" stroke:none;fill-rule:nonzero;fill:rgb(35.294119%,60.392159%,47.843137%);fill-opacity:1;" d="M 6.757812 31.277344 C 7.445312 31.480469 8.015625 31.664062 8.535156 32.171875 C 8.667969 32.5625 8.667969 32.5625 8.714844 32.886719 C 7.773438 32.636719 7.332031 32.015625 6.757812 31.277344 Z M 6.757812 31.277344 "/>
<path style=" stroke:none;fill-rule:nonzero;fill:rgb(34.901962%,61.176473%,47.450981%);fill-opacity:1;" d="M 32.011719 13.761719 C 32.128906 13.820312 32.246094 13.878906 32.367188 13.941406 C 31.613281 14.648438 30.847656 14.910156 29.875 15.191406 C 30.460938 14.507812 31.167969 14.0625 32.011719 13.761719 Z M 32.011719 13.761719 "/>
<path style=" stroke:none;fill-rule:nonzero;fill:rgb(35.294119%,61.56863%,46.666667%);fill-opacity:1;" d="M 24.542969 21.804688 C 24.777344 21.863281 25.011719 21.921875 25.253906 21.984375 C 25.046875 22.605469 24.871094 22.683594 24.363281 23.054688 C 24.246094 23.230469 24.128906 23.410156 24.007812 23.589844 C 24.140625 22.40625 24.140625 22.40625 24.542969 21.804688 Z M 24.542969 21.804688 "/>
<path style=" stroke:none;fill-rule:nonzero;fill:rgb(58.039218%,58.823532%,59.215689%);fill-opacity:1;" d="M 97.8125 18.765625 C 97.929688 18.882812 98.046875 19 98.167969 19.125 C 97.71875 19.742188 97.234375 20.324219 96.746094 20.910156 C 96.683594 20.734375 96.625 20.558594 96.566406 20.375 C 96.777344 20.015625 96.777344 20.015625 97.078125 19.636719 C 97.175781 19.511719 97.273438 19.386719 97.375 19.257812 C 97.632812 18.945312 97.632812 18.945312 97.8125 18.765625 Z M 97.8125 18.765625 "/>
<path style=" stroke:none;fill-rule:nonzero;fill:rgb(40.784314%,60.392159%,49.803922%);fill-opacity:1;" d="M 35.035156 10.542969 C 34.421875 10.882812 33.792969 11.082031 33.121094 11.28125 C 32.914062 11.34375 32.707031 11.40625 32.492188 11.472656 C 32.253906 11.542969 32.253906 11.542969 32.011719 11.617188 C 32.011719 11.5 32.011719 11.382812 32.011719 11.257812 C 32.972656 10.617188 33.894531 10.496094 35.035156 10.542969 Z M 35.035156 10.542969 "/>
<path style=" stroke:none;fill-rule:nonzero;fill:rgb(27.843139%,67.843139%,49.019608%);fill-opacity:1;" d="M 72.558594 23.589844 C 73 23.769531 73 23.769531 73.449219 23.949219 C 73.210938 24.007812 72.976562 24.066406 72.734375 24.128906 C 72.792969 24.1875 72.851562 24.246094 72.914062 24.304688 C 72.914062 24.425781 72.914062 24.542969 72.914062 24.664062 C 73.03125 24.722656 73.148438 24.78125 73.269531 24.84375 C 72.976562 24.84375 72.683594 24.84375 72.378906 24.84375 C 72.261719 24.605469 72.144531 24.371094 72.023438 24.128906 C 72.199219 23.949219 72.375 23.773438 72.558594 23.589844 Z M 72.558594 23.589844 "/>
<path style=" stroke:none;fill-rule:nonzero;fill:rgb(38.82353%,60.000002%,49.411765%);fill-opacity:1;" d="M 2.488281 23.414062 C 3.136719 23.84375 3.144531 24.039062 3.324219 24.777344 C 3.367188 24.953125 3.414062 25.132812 3.457031 25.320312 C 3.507812 25.523438 3.507812 25.523438 3.558594 25.734375 C 3.4375 25.855469 3.320312 25.972656 3.199219 26.09375 C 3.082031 25.714844 2.964844 25.335938 2.84375 24.953125 C 2.78125 24.742188 2.714844 24.53125 2.644531 24.3125 C 2.488281 23.769531 2.488281 23.769531 2.488281 23.414062 Z M 2.488281 23.414062 "/>
<path style=" stroke:none;fill-rule:nonzero;fill:rgb(32.941177%,67.450982%,45.490196%);fill-opacity:1;" d="M 17.882812 23.222656 C 18.097656 23.226562 18.097656 23.226562 18.316406 23.234375 C 18.375 23.410156 18.433594 23.589844 18.496094 23.769531 C 18.613281 23.828125 18.730469 23.886719 18.851562 23.949219 C 18.5 24.007812 18.148438 24.066406 17.785156 24.128906 C 17.609375 23.890625 17.433594 23.65625 17.25 23.414062 C 17.429688 23.234375 17.429688 23.234375 17.882812 23.222656 Z M 17.882812 23.222656 "/>
<path style=" stroke:none;fill-rule:nonzero;fill:rgb(58.431375%,58.823532%,60.000002%);fill-opacity:1;" d="M 121.464844 18.230469 C 121.582031 18.230469 121.699219 18.230469 121.820312 18.230469 C 121.835938 18.429688 121.847656 18.628906 121.863281 18.832031 C 121.921875 19.492188 121.921875 19.492188 122.363281 19.738281 C 122.476562 19.769531 122.589844 19.804688 122.707031 19.839844 C 122.296875 19.839844 121.886719 19.839844 121.464844 19.839844 C 121.464844 19.308594 121.464844 18.777344 121.464844 18.230469 Z M 121.464844 18.230469 "/>
<path style=" stroke:none;fill-rule:nonzero;fill:rgb(40.000001%,61.56863%,50.196081%);fill-opacity:1;" d="M 33.433594 18.765625 C 33.84375 18.765625 34.253906 18.765625 34.679688 18.765625 C 34.085938 19.242188 33.492188 19.71875 32.898438 20.195312 C 32.839844 19.960938 32.78125 19.722656 32.722656 19.480469 C 32.898438 19.570312 32.898438 19.570312 33.078125 19.660156 C 33.195312 19.363281 33.3125 19.070312 33.433594 18.765625 Z M 33.433594 18.765625 "/>
<path style=" stroke:none;fill-rule:nonzero;fill:rgb(36.078432%,58.823532%,47.450981%);fill-opacity:1;" d="M 18.140625 15.011719 C 18.757812 15.941406 19.109375 16.746094 19.027344 17.871094 C 18.851562 17.753906 18.675781 17.636719 18.496094 17.515625 C 18.382812 16.945312 18.382812 16.945312 18.316406 16.265625 C 18.285156 16.03125 18.25 15.800781 18.21875 15.558594 C 18.191406 15.378906 18.164062 15.199219 18.140625 15.011719 Z M 18.140625 15.011719 "/>
<path style=" stroke:none;fill-rule:nonzero;fill:rgb(36.470589%,58.431375%,48.235294%);fill-opacity:1;" d="M 7.003906 16.320312 C 7.171875 16.332031 7.34375 16.347656 7.519531 16.363281 C 7.984375 16.441406 8.304688 16.5625 8.714844 16.800781 C 8.308594 16.808594 7.90625 16.816406 7.503906 16.824219 C 7.164062 16.828125 7.164062 16.828125 6.820312 16.835938 C 6.222656 16.800781 6.222656 16.800781 5.691406 16.441406 C 6.164062 16.203125 6.476562 16.273438 7.003906 16.320312 Z M 7.003906 16.320312 "/>
<path style=" stroke:none;fill-rule:nonzero;fill:rgb(37.254903%,58.039218%,47.450981%);fill-opacity:1;" d="M 54.953125 15.371094 C 55.480469 15.371094 56.007812 15.371094 56.550781 15.371094 C 56.742188 15.722656 56.921875 16.078125 57.085938 16.441406 C 57.027344 16.558594 56.96875 16.679688 56.910156 16.800781 C 56.550781 16.441406 56.550781 16.441406 56.332031 16.074219 C 55.910156 15.605469 55.5625 15.601562 54.953125 15.550781 C 54.953125 15.488281 54.953125 15.429688 54.953125 15.371094 Z M 54.953125 15.371094 "/>
<path style=" stroke:none;fill-rule:nonzero;fill:rgb(34.117648%,61.960787%,46.666667%);fill-opacity:1;" d="M 33.96875 13.402344 C 33.144531 14.121094 33.144531 14.121094 32.542969 14.121094 C 32.484375 13.941406 32.425781 13.765625 32.367188 13.582031 C 32.960938 13.207031 33.296875 13.214844 33.96875 13.402344 Z M 33.96875 13.402344 "/>
<path style=" stroke:none;fill-rule:nonzero;fill:rgb(33.725491%,61.176473%,46.666667%);fill-opacity:1;" d="M 82.515625 25.199219 C 82.574219 25.375 82.632812 25.554688 82.695312 25.734375 C 82.8125 25.734375 82.929688 25.734375 83.050781 25.734375 C 82.945312 26.835938 82.945312 26.835938 82.871094 27.164062 C 82.695312 27.253906 82.695312 27.253906 82.515625 27.34375 C 82.515625 26.636719 82.515625 25.929688 82.515625 25.199219 Z M 82.515625 25.199219 "/>
<path style=" stroke:none;fill-rule:nonzero;fill:rgb(40.000001%,60.784316%,49.803922%);fill-opacity:1;" d="M 30.765625 21.445312 C 30.941406 21.503906 31.117188 21.566406 31.300781 21.625 C 30.769531 22.15625 30.242188 22.6875 29.699219 23.234375 C 29.640625 23.058594 29.582031 22.878906 29.519531 22.699219 C 29.765625 22.429688 29.765625 22.429688 30.054688 22.160156 C 30.171875 22.160156 30.289062 22.160156 30.410156 22.160156 C 30.527344 21.925781 30.644531 21.691406 30.765625 21.445312 Z M 30.765625 21.445312 "/>
<path style=" stroke:none;fill-rule:nonzero;fill:rgb(31.764707%,66.666669%,55.29412%);fill-opacity:1;" d="M 69.890625 25.914062 C 70.066406 26.03125 70.242188 26.152344 70.425781 26.273438 C 70.425781 26.390625 70.425781 26.507812 70.425781 26.628906 C 70.601562 26.6875 70.777344 26.746094 70.957031 26.808594 C 70.722656 26.867188 70.488281 26.925781 70.246094 26.988281 C 70.246094 26.871094 70.246094 26.75 70.246094 26.628906 C 69.953125 26.628906 69.660156 26.628906 69.355469 26.628906 C 69.53125 26.394531 69.710938 26.15625 69.890625 25.914062 Z M 69.890625 25.914062 "/>
<path style=" stroke:none;fill-rule:nonzero;fill:rgb(30.980393%,65.882355%,43.921569%);fill-opacity:1;" d="M 15.828125 31.992188 C 15.945312 31.992188 16.0625 31.992188 16.183594 31.992188 C 16.203125 32.105469 16.21875 32.21875 16.238281 32.335938 C 16.277344 32.460938 16.320312 32.582031 16.359375 32.707031 C 16.539062 32.765625 16.714844 32.824219 16.894531 32.886719 C 16.777344 32.886719 16.660156 32.886719 16.539062 32.886719 C 16.539062 33.003906 16.539062 33.121094 16.539062 33.242188 C 16.003906 33.0625 16.003906 33.0625 15.78125 32.71875 C 15.738281 32.597656 15.695312 32.472656 15.648438 32.347656 C 15.707031 32.230469 15.765625 32.113281 15.828125 31.992188 Z M 15.828125 31.992188 "/>
<path style=" stroke:none;fill-rule:nonzero;fill:rgb(30.980393%,67.450982%,52.941179%);fill-opacity:1;" d="M 71.492188 24.484375 C 71.550781 24.601562 71.609375 24.722656 71.667969 24.84375 C 71.84375 24.84375 72.019531 24.84375 72.203125 24.84375 C 72.148438 25.175781 72.148438 25.175781 72.023438 25.558594 C 71.847656 25.675781 71.671875 25.792969 71.492188 25.914062 C 71.421875 25.5 71.363281 25.082031 71.3125 24.664062 C 71.371094 24.605469 71.429688 24.546875 71.492188 24.484375 Z M 71.492188 24.484375 "/>
<path style=" stroke:none;fill-rule:nonzero;fill:rgb(24.705882%,66.274512%,39.607844%);fill-opacity:1;" d="M 21.164062 22.875 C 21.222656 23.171875 21.28125 23.464844 21.339844 23.769531 C 21.105469 23.828125 20.871094 23.886719 20.628906 23.949219 C 20.511719 23.652344 20.394531 23.359375 20.273438 23.054688 C 20.628906 22.875 20.628906 22.875 21.164062 22.875 Z M 21.164062 22.875 "/>
<path style=" stroke:none;fill-rule:nonzero;fill:rgb(59.215689%,59.215689%,60.000002%);fill-opacity:1;" d="M 123.953125 15.90625 C 123.953125 16.023438 123.953125 16.140625 123.953125 16.265625 C 123.601562 16.441406 123.25 16.617188 122.886719 16.800781 C 122.886719 16.503906 122.886719 16.210938 122.886719 15.90625 C 123.421875 15.726562 123.421875 15.726562 123.953125 15.90625 Z M 123.953125 15.90625 "/>
<path style=" stroke:none;fill-rule:nonzero;fill:rgb(59.215689%,59.215689%,59.215689%);fill-opacity:1;" d="M 106.523438 22.160156 C 106.644531 22.21875 106.761719 22.28125 106.882812 22.339844 C 106.636719 22.609375 106.636719 22.609375 106.347656 22.875 C 106.230469 22.875 106.113281 22.875 105.992188 22.875 C 105.96875 22.992188 105.949219 23.105469 105.925781 23.222656 C 105.886719 23.34375 105.851562 23.464844 105.8125 23.589844 C 105.636719 23.679688 105.636719 23.679688 105.457031 23.769531 C 105.542969 23.011719 105.984375 22.664062 106.523438 22.160156 Z M 106.523438 22.160156 "/>
<path style=" stroke:none;fill-rule:nonzero;fill:rgb(30.980393%,65.490198%,45.09804%);fill-opacity:1;" d="M 31.65625 20.195312 C 31.773438 20.195312 31.890625 20.195312 32.011719 20.195312 C 32.011719 20.492188 32.011719 20.785156 32.011719 21.089844 C 31.660156 21.265625 31.660156 21.265625 31.300781 21.445312 C 31.277344 21.023438 31.277344 21.023438 31.300781 20.554688 C 31.417969 20.433594 31.535156 20.316406 31.65625 20.195312 Z M 31.65625 20.195312 "/>
<path style=" stroke:none;fill-rule:nonzero;fill:rgb(30.588236%,63.529414%,44.705883%);fill-opacity:1;" d="M 65.476562 15.324219 C 65.644531 15.339844 65.808594 15.355469 65.976562 15.371094 C 65.800781 15.429688 65.625 15.488281 65.445312 15.550781 C 65.445312 15.726562 65.445312 15.902344 65.445312 16.085938 C 65.09375 16.085938 64.742188 16.085938 64.378906 16.085938 C 64.703125 15.503906 64.796875 15.378906 65.476562 15.324219 Z M 65.476562 15.324219 "/>
<path style=" stroke:none;fill-rule:nonzero;fill:rgb(36.470589%,59.607846%,47.450981%);fill-opacity:1;" d="M 14.9375 6.792969 C 15.328125 7.378906 15.472656 7.902344 15.648438 8.578125 C 15.53125 8.578125 15.414062 8.578125 15.292969 8.578125 C 14.746094 7.609375 14.746094 7.609375 14.816406 7.082031 C 14.855469 6.984375 14.898438 6.890625 14.9375 6.792969 Z M 14.9375 6.792969 "/>
<path style=" stroke:none;fill-rule:nonzero;fill:rgb(25.882354%,67.843139%,45.09804%);fill-opacity:1;" d="M 24.898438 29.3125 C 25.015625 29.371094 25.132812 29.429688 25.253906 29.488281 C 25.253906 29.667969 25.253906 29.84375 25.253906 30.027344 C 25.136719 30.027344 25.019531 30.027344 24.898438 30.027344 C 24.898438 30.144531 24.898438 30.261719 24.898438 30.382812 C 24.664062 30.324219 24.429688 30.265625 24.1875 30.203125 C 24.304688 30.144531 24.421875 30.085938 24.542969 30.027344 C 24.542969 29.90625 24.542969 29.789062 24.542969 29.667969 C 24.660156 29.667969 24.777344 29.667969 24.898438 29.667969 C 24.898438 29.550781 24.898438 29.433594 24.898438 29.3125 Z M 24.898438 29.3125 "/>
<path style=" stroke:none;fill-rule:nonzero;fill:rgb(32.941177%,63.921571%,44.705883%);fill-opacity:1;" d="M 3.734375 27.164062 C 4.175781 27.253906 4.175781 27.253906 4.625 27.34375 C 4.683594 27.523438 4.742188 27.699219 4.800781 27.878906 C 4.566406 27.941406 4.332031 28 4.089844 28.058594 C 3.972656 27.765625 3.855469 27.46875 3.734375 27.164062 Z M 3.734375 27.164062 "/>
<path style=" stroke:none;fill-rule:nonzero;fill:rgb(17.647059%,81.960785%,35.686275%);fill-opacity:1;" d="M 92.832031 23.234375 C 92.949219 23.351562 93.066406 23.46875 93.1875 23.589844 C 93.128906 23.699219 93.070312 23.804688 93.007812 23.914062 C 92.792969 24.316406 92.792969 24.316406 92.832031 24.84375 C 92.554688 24.53125 92.554688 24.53125 92.296875 24.128906 C 92.332031 23.738281 92.332031 23.738281 92.476562 23.414062 C 92.59375 23.355469 92.710938 23.292969 92.832031 23.234375 Z M 92.832031 23.234375 "/>
<path style=" stroke:none;fill-rule:nonzero;fill:rgb(58.431375%,58.431375%,58.431375%);fill-opacity:1;" d="M 104.035156 19.125 C 104.3125 19.347656 104.3125 19.347656 104.570312 19.660156 C 104.511719 20.050781 104.511719 20.050781 104.390625 20.375 C 104.15625 20.433594 103.921875 20.492188 103.679688 20.554688 C 103.679688 20.433594 103.679688 20.316406 103.679688 20.195312 C 103.796875 20.136719 103.914062 20.078125 104.035156 20.015625 C 104.09375 19.839844 104.152344 19.664062 104.214844 19.480469 C 104.097656 19.421875 103.980469 19.363281 103.859375 19.300781 C 103.917969 19.242188 103.976562 19.183594 104.035156 19.125 Z M 104.035156 19.125 "/>
<path style=" stroke:none;fill-rule:nonzero;fill:rgb(58.431375%,58.823532%,59.215689%);fill-opacity:1;" d="M 127.332031 18.050781 C 127.273438 18.347656 127.214844 18.640625 127.15625 18.945312 C 127.039062 18.886719 126.917969 18.828125 126.800781 18.765625 C 126.800781 18.707031 126.800781 18.648438 126.800781 18.585938 C 126.328125 18.527344 125.859375 18.46875 125.375 18.410156 C 125.375 18.347656 125.375 18.289062 125.375 18.230469 C 125.636719 18.199219 125.894531 18.171875 126.152344 18.140625 C 126.296875 18.125 126.441406 18.105469 126.59375 18.089844 C 126.976562 18.050781 126.976562 18.050781 127.332031 18.050781 Z M 127.332031 18.050781 "/>
<path style=" stroke:none;fill-rule:nonzero;fill:rgb(41.568628%,60.784316%,50.588238%);fill-opacity:1;" d="M 78.960938 19.480469 C 79.605469 19.539062 80.25 19.597656 80.917969 19.660156 C 80.917969 19.71875 80.917969 19.777344 80.917969 19.839844 C 79.859375 19.925781 79.859375 19.925781 78.78125 20.015625 C 78.839844 19.839844 78.898438 19.664062 78.960938 19.480469 Z M 78.960938 19.480469 "/>
</g>
</svg>
